<?xml version="1.0" encoding="utf-8"?>
<!-- Generator: Adobe Illustrator 28.1.0, SVG Export Plug-In . SVG Version: 6.00 Build 0)  -->
<svg version="1.1" id="Layer_1" xmlns="http://www.w3.org/2000/svg" xmlns:xlink="http://www.w3.org/1999/xlink" x="0px" y="0px"
	 viewBox="0 0 540 88.57" style="enable-background:new 0 0 540 88.57;" xml:space="preserve">
<style type="text/css">
	.st0{fill:#EE1C4E;}
</style>
<g>
	<path class="st0" d="M64.01,11.46l15.97-7.55L42.62,44.58l9.23-4.54v-0.07l2.57-1.17l14.29-7.1l-2.05,2.19l-0.15,0.07L52.07,49.34
		l6.89,4.98c4.2,3.08,8.03,5.26,11.5,6.55c3.47,1.29,6.62,1.94,9.45,1.94c2.05,0,3.93-0.27,5.64-0.8c1.71-0.54,3.27-1.23,4.69-2.09
		c1.42-0.86,2.7-1.85,3.85-2.97c1.15-1.13,2.16-2.27,3.04-3.45c2.05-2.73,3.74-5.83,5.06-9.3c-0.34,2.78-1.05,5.47-2.13,8.06
		c-0.44,1.08-0.99,2.2-1.65,3.37c-0.66,1.17-1.44,2.32-2.34,3.44c-0.9,1.13-1.95,2.19-3.15,3.19c-1.2,1-2.55,1.87-4.07,2.6
		c-0.88,0.54-1.93,1.05-3.15,1.54c-1.03,0.39-2.27,0.73-3.74,1.03c-1.46,0.29-3.15,0.44-5.06,0.44c-3.03,0-6.51-0.63-10.44-1.87
		c-3.93-1.24-8.24-3.63-12.93-7.14l-11.5-8.35l7.77-8.28l-25.94,12.9L64.01,11.46z"/>
	<path class="st0" d="M68.26,22.02l0.44-1.62l32.82-16.49l1.25,0.44h0.07l0.37,0.15c3.81,1.51,6.9,3.44,9.27,5.78
		c2.37,2.35,4.24,4.67,5.6,6.96c1.61,2.64,2.78,5.37,3.52,8.2c0.58,2.64,0.88,5.28,0.88,7.91c0,1.13-0.05,2.27-0.15,3.45
		c-0.15,1.61-0.45,3.29-0.92,5.01c-0.46,1.74-1.16,3.46-2.09,5.17c-0.93,1.71-2.11,3.39-3.55,5.06c-1.44,1.66-3.21,3.22-5.31,4.69
		c1.76-1.42,3.3-3.23,4.62-5.42c1.32-2.2,2.21-4.41,2.67-6.63c0.46-2.22,0.69-4.26,0.69-6.12c0-1.07-0.11-2.67-0.33-4.76
		c-0.22-2.1-1.11-4.72-2.68-7.84c-0.88-1.71-1.9-3.39-3.08-5.06c-1.03-1.41-2.27-2.88-3.74-4.39c-1.47-1.51-3.15-2.83-5.06-3.96
		c-1.56-0.92-3.14-1.65-4.73-2.16c-1.59-0.51-3.19-0.77-4.8-0.77c-0.44,0-0.88,0.02-1.32,0.07l-13.26,6.74
		c-1.61,1.56-2.78,3.23-3.52,5.01c-0.73,1.79-1.25,3.61-1.54,5.46c-0.2,1.22-0.29,2.44-0.29,3.66c0,0.93,0.1,2.15,0.29,3.67
		c0.19,1.51,0.51,3.12,0.95,4.84c0.49,1.95,1.12,3.81,1.91,5.57c1.27,2.73,2.8,5.1,4.58,7.1c1.78,2,3.7,3.67,5.75,4.98
		c2.05,1.32,4.16,2.31,6.34,2.97c2.17,0.66,4.29,0.99,6.34,0.99c1.42,0,2.74-0.15,3.96-0.44c-1.42,0.39-2.78,0.68-4.1,0.88
		c-1.32,0.2-2.59,0.29-3.81,0.29c-1.81,0-3.54-0.17-5.2-0.51c-1.66-0.34-3.21-0.8-4.65-1.39c-1.44-0.58-2.77-1.25-3.99-1.98
		c-1.22-0.73-2.32-1.49-3.3-2.27c-2.34-1.85-4.39-3.93-6.15-6.22c-1.71-2.34-3.08-4.94-4.1-7.77c-0.93-2.44-1.5-4.66-1.72-6.67
		c-0.22-2-0.33-3.39-0.33-4.17C66.87,27.8,67.33,24.99,68.26,22.02z"/>
	<path class="st0" d="M118.23,41.36l34.95-37.44l0.66,8.94l-16.92,18.17l49.97-24.84c0.69-0.39,1.39-0.77,2.13-1.13
		c0.73-0.37,1.47-0.75,2.2-1.14l-49.82,53.71l-12.6,3.95l33.34-35.97c4.88-5.23,10.18-9.84,15.9-13.85l-46.31,23.08L118.23,41.36z"
		/>
	<path class="st0" d="M177.5,34.47l14.8-16.05c2.64-2.98,5.2-5.41,7.69-7.29c2.49-1.88,4.87-3.34,7.14-4.4
		c2.27-1.05,4.4-1.75,6.37-2.12c1.98-0.36,3.75-0.55,5.31-0.55c1.07,0,2.03,0.06,2.86,0.18c0.83,0.12,1.54,0.23,2.13,0.33
		c0.68,0.2,1.29,0.39,1.83,0.58c1.71,0.44,3.25,1.03,4.62,1.76c1.37,0.73,2.62,1.56,3.77,2.49c1.15,0.93,2.16,1.9,3.04,2.93
		c0.88,1.03,1.66,2.03,2.35,3c1.61,2.4,2.86,4.94,3.74,7.62c-1.66-2.68-3.59-5.08-5.79-7.18c-0.93-0.88-1.97-1.76-3.12-2.64
		c-1.15-0.88-2.39-1.65-3.74-2.31c-1.34-0.66-2.78-1.2-4.32-1.62c-1.54-0.41-3.16-0.62-4.87-0.62c-1.66,0-3.4,0.23-5.2,0.7
		c-1.81,0.47-3.68,1.2-5.61,2.23s-3.94,2.39-6.04,4.07c-2.1,1.69-4.25,3.77-6.45,6.27l-17.73,20L177.5,34.47z M180.51,42.6
		c1.66,2.69,3.59,5.09,5.79,7.18c0.98,0.88,2.04,1.76,3.19,2.64c1.15,0.88,2.39,1.65,3.74,2.31c1.34,0.66,2.78,1.2,4.32,1.61
		c1.54,0.42,3.16,0.63,4.87,0.63c1.66,0,3.39-0.23,5.2-0.7c1.81-0.47,3.67-1.21,5.6-2.24c1.93-1.03,3.94-2.38,6.04-4.07
		c2.1-1.68,4.25-3.77,6.45-6.26l8.72-9.53h-7.18c-2.44,1.62-5.06,2.85-7.84,3.7c-2.78,0.85-5.64,1.33-8.57,1.43l-14.95,0.21
		l5.86-6.45h0.07L201.75,33h42.64l-13.04,14.14c-2.64,2.98-5.2,5.41-7.69,7.29c-2.49,1.88-4.87,3.34-7.14,4.39
		c-2.27,1.05-4.4,1.76-6.37,2.13c-1.98,0.36-3.75,0.55-5.31,0.55c-1.08,0-2.03-0.07-2.86-0.18c-0.83-0.12-1.54-0.23-2.12-0.33
		c-0.69-0.2-1.3-0.39-1.83-0.59c-1.66-0.44-3.19-1.04-4.58-1.79c-1.39-0.76-2.65-1.59-3.77-2.49c-1.13-0.91-2.14-1.87-3.04-2.9
		c-0.91-1.03-1.7-2.05-2.38-3.08C182.68,47.8,181.43,45.29,180.51,42.6z"/>
	<path class="st0" d="M276.64,9.78c-0.28,0.29-0.56,0.59-0.83,0.88c-0.34,0.37-0.68,0.73-1.02,1.1c-0.43,0.47-0.87,0.94-1.3,1.4
		c-0.5,0.54-1,1.08-1.5,1.61c-0.53,0.58-1.07,1.15-1.6,1.73c-0.54,0.58-1.08,1.16-1.62,1.75c-0.52,0.56-1.03,1.11-1.55,1.67
		c-0.46,0.5-0.92,1-1.39,1.5c-0.38,0.41-0.76,0.82-1.14,1.23c-0.27,0.29-0.53,0.57-0.8,0.86c-0.12,0.13-0.25,0.26-0.38,0.41
		L291.8,9.85l-44.99,48.28l-11.65,3.44l37.44-40.74c0,0-23.08,11.57-23.01,11.43l-5.28,2.64c0,0,21.18-22.78,21.18-22.78
		c0.21-0.1,0.43-0.2,0.64-0.3c0.54-0.25,1.08-0.51,1.62-0.76c0.71-0.33,1.43-0.67,2.14-1c0.74-0.35,1.48-0.69,2.21-1.04
		c0.61-0.29,1.22-0.57,1.84-0.86c0.55-0.26,1.1-0.51,1.65-0.77c0.83-0.39,1.66-0.78,2.49-1.18c0.8-0.38,1.6-0.76,2.4-1.14
		c0.35-0.17,0.7-0.33,1.06-0.5c-0.33,0.36-0.67,0.72-1,1.07c-0.64,0.69-1.28,1.37-1.93,2.06C277.96,8.41,277.29,9.09,276.64,9.78z"
		/>
	<path class="st0" d="M313.19,20.26l24.03-11.87c-3.12,0.88-6.29,1.55-9.49,2.02c-3.2,0.47-6.41,0.7-9.64,0.7h-26.38
		c4.78-2.4,9.74-4.19,14.87-5.39c5.13-1.19,10.35-1.79,15.68-1.79h26.38l-20.81,10.33l-41.03,43.89l-11.65,3.44L313.19,20.26z"/>
	<path class="st0" d="M334.88,19.08l16.71-8.28l-37.73,40.3l36.05-17.95l19.56-20.95l16.63-8.28l-26.16,28.07v0.07l-9.52,10.11
		c-3.08,3.46-5.35,6.74-6.82,9.81c-1.47,3.08-2.28,5.46-2.45,7.14c-0.17,1.69-0.26,2.9-0.26,3.63c0,1.81,0.29,3.66,0.88,5.57
		c0.58,1.9,1.46,3.76,2.64,5.56c2.78,4.16,6.96,7.75,12.53,10.77c-2.74-0.69-5.3-1.71-7.69-3.08c-1.03-0.59-2.07-1.27-3.15-2.05
		c-1.08-0.79-2.1-1.7-3.08-2.75c-0.98-1.05-1.88-2.22-2.71-3.52c-0.83-1.29-1.54-2.75-2.13-4.36c-1.12-2.74-1.68-5.69-1.68-8.87
		c0-0.24,0-0.49,0-0.73c0.05-1.51,0.24-3.15,0.59-4.91c0.34-1.76,0.92-3.61,1.72-5.57c0.81-1.96,1.89-4.01,3.26-6.15
		c1.37-2.15,3.08-4.35,5.13-6.59c0.1-0.15,0.3-0.37,0.59-0.66l-52.46,26.09L334.88,19.08z"/>
	<path class="st0" d="M358.83,37.69c0.59,1.71,1.37,3.42,2.35,5.13c0.83,1.47,1.87,3.03,3.11,4.69c1.25,1.66,2.77,3.2,4.58,4.62
		l28.35-30.84L376.05,5.75l-2.42-1.69l24.18-0.07c0.64,0,1.25,0,1.83,0c2.59,0,5.09,0.18,7.51,0.55c2.42,0.36,4.69,0.91,6.82,1.65
		s4,1.58,5.64,2.53c1.64,0.95,3.04,1.94,4.21,2.97c2.83,2.34,4.93,5.06,6.3,8.13c1.61,3.03,2.44,5.36,2.49,6.99
		c0.05,1.64,0.07,2.63,0.07,2.97c0,2.49-0.24,4.76-0.73,6.82c-0.64,2.74-1.64,5.35-3,7.84c0.88-3.37,1.32-6.59,1.32-9.67
		c0-1.22-0.07-2.42-0.22-3.59c-0.19-1.76-0.61-3.55-1.24-5.39c-0.64-1.83-1.57-3.58-2.78-5.24c-1.22-1.66-2.78-3.17-4.69-4.51
		s-4.28-2.46-7.11-3.33l-10.77,11.65l21.25,15.6l-17.07,12.46c-2.34,1.76-4.59,3.23-6.74,4.39c-2.15,1.17-4.21,2.1-6.19,2.78
		c-1.98,0.69-3.85,1.16-5.6,1.43c-1.76,0.27-3.4,0.4-4.91,0.4c-1.86,0-3.53-0.14-5.02-0.44s-2.77-0.64-3.85-1.03
		c-1.17-0.49-2.22-1-3.15-1.54c-3.08-1.51-5.49-3.45-7.25-5.79s-3.1-4.64-4.03-6.89C359.86,43.16,359.18,40.48,358.83,37.69z
		 M368.87,52.13c1.57,1.27,3.36,2.3,5.39,3.08c2.02,0.78,4.31,1.17,6.85,1.17c2.88,0,6.05-0.65,9.52-1.94
		c3.47-1.29,7.33-3.51,11.58-6.63l15.39-11.58l-14.95-10.92l-17.29,18.76L368.87,52.13z M398.04,20.4l0.15-0.22l15.97-7.47
		c-3.71-1.17-8.35-1.76-13.92-1.76c-0.2,0-0.41,0-0.66,0l-14.36,0.07L398.04,20.4z"/>
	<path class="st0" d="M461.63,3.99h8.94l43.16-0.08h2.42l-48.43,22.94c0.68-0.1,1.38-0.17,2.09-0.22c0.71-0.05,1.4-0.1,2.09-0.15
		l23.22-0.14h0.73l-47.26,22.42l50.77-0.08c-2.64,2-5.51,3.54-8.61,4.62c-3.1,1.07-6.29,1.66-9.56,1.75l-46.53,0.15l-2.56-0.07
		l47.77-22.42l-26.45,0.07c0.88-0.69,1.76-1.27,2.64-1.76h-0.07l0.37-0.15c0.78-0.48,1.59-0.91,2.42-1.28
		c0.83-0.36,1.66-0.72,2.49-1.06l40.52-19.05c-0.98,0.24-1.99,0.43-3.04,0.55c-1.05,0.13-2.09,0.21-3.12,0.26l-31.14,0.15
		l-26.52,28.14l-16.56,8.13L461.63,3.99z"/>
</g>
</svg>
