<?xml version="1.0" encoding="utf-8"?>
<!-- Generator: Adobe Illustrator 28.1.0, SVG Export Plug-In . SVG Version: 6.00 Build 0)  -->
<svg version="1.1" xmlns="http://www.w3.org/2000/svg" xmlns:xlink="http://www.w3.org/1999/xlink" x="0px" y="0px"
	 viewBox="0 0 495.83 500.06" style="enable-background:new 0 0 495.83 500.06;" xml:space="preserve">
<g id="Layer_1">
	<path d="M213.94,119.44c-8.45-12.96-20.88-25.77-23.8-33.85c-3.43-9.49-3.91-20.06-1.39-29.83C193,39.28,205.06,25.41,219.9,17.1
		s32.24-11.37,49.23-10.72c25.09,0.95,57.48,6.73,70.63,30.86c5.58,10.24,7.8,22.36,5.76,33.87c-1.96,11.06-7.55,21.6-7.01,32.83
		c0.58,11.99,8.74,23.14,19.78,27.84c26.48,11.28,50.63-14.55,69.49-29.08c5.37-4.14,12.03-7.38,18.72-6.32
		c10.75,1.71,16.11,12.54,21.34,20.81c14.67,23.18,23.08,50.37,21.17,77.94c-0.45,6.47-1.45,12.89-3.01,19.18
		c-7.04,28.35-24.25,50.62-49.46,65.15c-16.49,9.5-33.81,15.6-52.97,10.85c-17.99-4.46-28.92-17.78-42.54-29.06
		c-17.57-14.54-46.43-34.49-69.18-18.42c-10.81,7.64-15.03,21.42-18.56,34.18c-6.84,24.75-13.68,49.5-20.52,74.25
		c-6.44,23.3-13.07,46.34-24.41,67.84c-17.01,32.25-46.49,57.48-80.85,69.6c-22.25,7.85-46.97,5.65-67.5-5.95
		c-22.28-12.58-37.03-35.04-44.53-59.11c-3.28-10.53-5.29-21.65-6.81-32.56c-4.69-33.6-4.38-73.67,21.2-99.08
		c15.87-15.76,35.45-23.21,56.55-28.87c19.36-5.2,45.16-14.05,45.94-37.98c0.86-26.33-26.37-34.9-47.49-37.76
		c-15.74-2.13-32.02-3.38-46-11.72c-10.18-6.07-18.23-15.59-22.84-26.88c-3.95-9.88-5.09-20.73-4.47-31.36
		c0.56-9.59,2.54-19.12,6.02-28.08c3.38-8.72,8.61-17.4,16.67-22.52c9.13-5.79,20.81-7.07,31.05-3.81
		c12.22,3.89,24.73,9.64,32.16,20.57c4.68,6.88,7.68,15.84,7.19,24.23c-0.15,2.47-1.78,17.23,3.67,15.9
		c1.67-0.41,2.71-2.03,3.56-3.53c3.19-5.58,6.45-11.39,11.64-15.2c5.18-3.81,12.9-5.01,17.9-0.96c5.26,4.26,5.45,12.01,7.34,18.51
		c3.6,12.38,13.76,21.69,24.73,27.77c10.72,5.95,25.18,11.92,37.26,5.71C227.5,147.43,223.01,133.34,213.94,119.44z"/>
</g>
<g id="Layer_2">
</g>
</svg>
