<?xml version="1.0" encoding="utf-8"?>
<!-- Generator: Adobe Illustrator 28.1.0, SVG Export Plug-In . SVG Version: 6.00 Build 0)  -->
<svg version="1.1" id="Layer_1" xmlns="http://www.w3.org/2000/svg" xmlns:xlink="http://www.w3.org/1999/xlink" x="0px" y="0px"
	 viewBox="0 0 657.29 155.13" style="enable-background:new 0 0 657.29 155.13;" xml:space="preserve">
<g>
	<path d="M6.73,0v117.4H0V0H6.73z"/>
	<path d="M24.73,77.49c0-23.48,18.31-41.33,41.95-41.33c23.48,0,41.8,17.85,41.8,41.33c0,23.32-18.31,41.48-41.8,41.48
		C43.05,118.97,24.73,100.81,24.73,77.49z M101.75,77.33c0-19.72-15.34-35.06-35.07-35.06c-19.88,0-35.38,15.34-35.38,35.06
		c0,19.88,15.5,35.54,35.38,35.54C86.41,112.87,101.75,97.21,101.75,77.33z"/>
	<path d="M195.98,70.13v47.27h-6.89V70.91c0-21.29-12.52-28.96-26.77-28.96c-18.63,0-29.12,12.84-29.12,31.62v43.83h-6.89V37.73
		h6.11l0.63,18.47c4.85-12.84,15.81-20.04,30.84-20.04C181.11,36.16,195.98,45.71,195.98,70.13z"/>
	<path d="M290.38,37.73h6.1v73.57c0,29.74-15.97,43.83-40.07,43.83c-12.68,0-24.73-3.6-34.91-10.64v-6.73
		c4.38,3.29,17.69,11.43,33.97,11.43c20.51,0,34.13-11.27,34.13-37.88V94.71c-5.64,14.25-18.32,24.26-36.32,24.26
		c-24.26,0-41.01-17.85-41.01-41.64s16.91-41.17,41.33-41.17c17.06,0,29.74,9.24,36,23.64v0.63L290.38,37.73z M289.59,77.49
		c0-19.57-14.56-35.22-35.22-35.22c-20.51,0-35.38,14.71-35.38,35.22c0,20.51,14.87,35.38,35.38,35.38
		C275.03,112.87,289.59,97.05,289.59,77.49z"/>
	<path d="M316.67,17.06c0-3.13,2.5-5.64,5.64-5.64s5.48,2.5,5.48,5.64s-2.35,5.48-5.48,5.48S316.67,20.19,316.67,17.06z
		 M325.59,37.73v79.68h-6.73V37.73H325.59z"/>
	<path d="M373.49,37.73v5.64h-15.65v74.04h-6.73V43.36h-10.96v-5.64h10.96V15.18h6.73v22.54H373.49z"/>
	<path d="M450.35,37.73h6.73v79.68h-6.1l-0.31-19.1c-4.85,13.15-15.81,20.66-31.15,20.66c-17.22,0-31.93-9.55-31.93-33.97V37.73
		h6.73v46.49c0,21.29,12.68,28.8,26.77,28.8c18.63,0,29.27-12.68,29.27-31.62V37.73z"/>
	<path d="M552.41,0h6.89v117.4h-6.89v-22.7c-5.64,14.25-18.32,24.26-36.32,24.26c-24.26,0-41.01-17.85-41.01-41.64
		s16.91-41.17,41.33-41.17c17.06,0,29.74,9.24,36,23.64V0z M552.41,77.49c0-19.57-14.56-35.22-35.22-35.22
		c-20.51,0-35.38,14.71-35.38,35.22c0,20.51,14.87,35.38,35.38,35.38C537.86,112.87,552.41,97.05,552.41,77.49z"/>
	<path d="M657.29,79.05h-73.42c0.63,20.82,15.34,34.12,34.44,34.12c16.44,0,26.14-9.55,30.06-18.47l6.11,0.94
		c-4.23,12.05-17.22,23.32-36.16,23.32c-23.32,0-41.17-16.44-41.17-41.8c0-22.7,16.91-41.01,40.07-41.01
		C641.48,36.16,657.45,54.48,657.29,79.05z M583.88,73.57h66.37c-0.63-17.38-13.62-31.78-33.03-31.78
		C598.59,41.8,584.82,55.88,583.88,73.57z"/>
</g>
</svg>
