<?xml version="1.0" encoding="utf-8"?>
<!-- Generator: Adobe Illustrator 28.1.0, SVG Export Plug-In . SVG Version: 6.00 Build 0)  -->
<svg version="1.1" id="Layer_1" xmlns="http://www.w3.org/2000/svg" xmlns:xlink="http://www.w3.org/1999/xlink" x="0px" y="0px"
	 viewBox="0 0 199.5 48.3" style="enable-background:new 0 0 199.5 48.3;" xml:space="preserve">
<style type="text/css">
	.st0{fill:#4834D4;}
</style>
<g>
	<path class="st0" d="M21.7-7.9c0.1,0.5,0.1,0.8,0.1,1c0,0.7-0.5,1.6-1.1,2.6l-20,28.5c-1.3,1.8-2,3.5-2,4.6c0,1,0.6,1.7,1.5,1.7
		c1.5,0,3.4-1.2,6.6-4.2c2.5-2.3,5.4-5.4,6-6.5c0.3-0.6,0.6-0.9,0.9-0.9c0.2,0,0.3,0.1,0.3,0.2c0,0.2-0.3,0.7-0.7,1.2l-1.6,2
		c-0.4,0.4-1,1.2-2.2,2.2C8.1,25.8,7.4,26.6,7,27c-4,3.8-7.3,5.8-9.8,5.8s-4-1.5-4-3.9c0-1.8,0.7-3.6,2.5-6.2L15.4-5
		c0.6-0.8,0.9-1.4,0.9-1.9c0-0.2-0.1-0.5-0.2-1H21.7z"/>
	<path class="st0" d="M20.1,12.2c3.3-2,6.6-3,9.9-3c3.8,0,5.6,1.6,5.6,5.4c0,3.1-1.4,6.2-4.6,9.9c-4.5,5.3-10.4,8.7-14.5,8.7
		c-4.4,0-7.3-2.3-7.3-6c0-0.8,0.2-1.7,0.4-2.4C10.8,20.4,14.7,15.5,20.1,12.2z M13.9,27.7c0,0.4-0.1,0.7-0.1,1
		c0,1.9,1.1,2.9,3.2,2.9c2.9,0,5.5-2.1,10.1-8c2.1-2.6,2.8-3.7,3.8-5.8c1-2.3,1.6-4.5,1.6-5.6c0-1.4-0.9-2.2-2.6-2.2
		c-2.5,0-6.5,3-10.3,7.8C16.3,21.6,14.5,24.9,13.9,27.7z"/>
	<path class="st0" d="M30.8,32.1L45.1,12c0.6-0.6,0.7-1.2,0.7-1.8V9.6h5.6c0,1.2-0.2,1.8-0.8,2.6l-3.2,3.7c1.2-0.9,2.2-1.6,2.7-2
		c3.1-2.5,4-3.3,5.8-4.1c1.3-0.6,3-1,4.1-1c2.5,0,4.2,1.4,4.2,3.4c0,1.8-1.6,4.3-5.2,8.8c-4.5,5.5-5.2,6.6-5.2,7.9
		c0,0.8,0.7,1.4,1.3,1.4c2,0,6-2.8,9.2-6.3l2.2-2.4c0.8-0.7,1.3-1.4,1.6-1.9c0.3-0.4,0.6-0.7,0.8-0.7s0.5,0.1,0.5,0.3
		c0,0.1-0.4,0.5-0.7,0.8c-0.2,0.2-0.8,0.9-1.5,2c-0.4,0.4-1.2,1.3-2.3,2.5c-1.2,1.2-2.1,2-2.3,2.3c-3.9,3.6-7.7,5.5-10.4,5.5
		c-2.2,0-3.6-1.2-3.6-3c0-1.8,1-3.7,5.4-9.2c4.6-5.9,5.3-6.7,5.3-7.9c0-0.9-0.7-1.5-1.8-1.5c-1.7,0-4.4,1.6-6.8,3.6l-2.3,2l-1.4,1.2
		L36.6,32.1H30.8z"/>
	<path class="st0" d="M79.5,26.6c-1,1-1.7,1.7-2.2,2c-3.1,2.9-5.8,4.2-8.3,4.2c-2.6,0-4.3-1.9-4.3-4.9c0-3.7,3-8.8,7.1-12.4
		c4-3.5,10-6.3,13-6.3c2.3,0,3.4,0.7,4,3l1.9-2.7h6L83.1,28.8L81,31.7c-2.5,3.6-3.8,5.4-4.1,5.9c-2.4,3.2-5.7,6.3-8.6,7.9
		c-2.9,1.7-6.8,2.8-10.4,2.8c-3.7,0-6.5-1.7-6.5-3.8c0-1.4,1.2-2.7,2.6-2.7c0.8,0,1.9,0.5,1.8,1.5c0,0.2-0.1,0.4-0.2,0.6
		c-0.2,0.2-0.4,0.4-0.5,0.7c-0.3,0.8,0.2,1.5,0.7,2c0.7,0.6,1.7,0.8,2.6,0.9c0.3,0,0.7,0.1,1,0.1c1.3,0,3.4-0.6,4.9-1.3
		c1-0.5,2-1.2,2.9-2c1.9-1.8,2.3-2.1,6.6-8.6l3.7-5.4L79.5,26.6z M69.5,27.8v0.4c0,1.4,0.9,2.4,2.3,2.4c2.5,0,5.6-2.2,8.8-6.4
		c0.9-1.2,2.4-3.3,4.3-6.1c1.7-2.7,2.6-4.6,2.6-5.8c0-1.4-0.8-2.1-2.1-2.1c-2.1,0-4.8,1.4-7,3.7c-0.9,1-2.2,2.4-3.5,4
		c-2.9,3.5-3.7,4.8-4.5,6.8C70,26,69.6,27.1,69.5,27.8z"/>
	<path class="st0" d="M107.3,9.6c0,0.4,0.1,0.7,0.1,1c0,0.5-0.5,1.2-1.4,2.6l-8.2,11.7c-1.3,1.8-1.9,3.2-1.9,4.4
		c0,0.9,0.4,1.5,1.1,1.5c1.7,0,5.7-2.9,9.3-6.6l2.2-2.3c0.8-0.9,1.5-1.6,1.6-2c0.3-0.6,0.5-0.9,0.8-0.9c0.2,0,0.3,0,0.3,0.2
		c0,0.3-0.2,0.7-0.7,1.2l-1.6,2c-0.3,0.4-1.1,1.2-2.2,2.4l-2.3,2.3c-3.9,3.8-6.9,5.8-9.4,5.8c-2.6,0-4.5-1.5-4.5-3.6
		c0-1.6,0.9-3.6,2.5-5.9l7.2-10.2c0.7-1.1,1.1-2,1.1-2.4c0-0.3,0-0.6-0.2-1.2H107.3z M105.1,2.4c0-0.9,0.4-1.7,1.3-2.6
		c1.3-1.2,2.9-2,4.1-2c1.4,0,2.2,0.8,2.2,2c0,1-0.4,2-1.1,2.9C110.6,4,109,5,107.7,5c-1.3,0-2.2-0.6-2.5-1.7
		C105.1,3,105.1,2.6,105.1,2.4z"/>
	<path class="st0" d="M125.7,20.5l-1.7,2.1l-1.9,2l-2.3,2.4c-1.4,1.4-2.2,2-4.4,3.8c-2.1,1.7-3.4,2.3-5.1,2.3
		c-3.2,0-5.2-1.6-5.2-4.5c0-1.2,0.6-2.5,2.3-5l9.3-13.1h-4l0.5-1h4.4l4.5-6.2c0.7-1,1.2-1.9,1.3-2.2c0.1-0.2,0.1-0.6,0.2-1.1h5.2
		v0.8c0,0.5-0.5,1.6-1.3,2.9l-4.1,5.9h7.7l-0.7,1h-7.9l-9.4,13.3l-1.9,2.4c-0.6,0.7-0.7,1.4-0.7,2.2c0,1.3,0.8,2.3,2.1,2.3
		c1.2,0,3-0.9,4.5-2.3c0.3-0.3,1.1-1,2.3-2.2c1.2-1.2,1.9-1.9,2.1-2.1l2.1-2c1-1,1.5-1.8,1.6-2.1c0.4-0.6,0.7-0.9,0.9-0.9
		c0.2,0,0.3,0.1,0.3,0.3v0.4L125.7,20.5z"/>
	<path class="st0" d="M124.5,32.8c-2.7,0-4.4-1.5-4.4-3.7c0-1.4,0.7-2.8,2.2-4.9l2.4-3.5l5.4-7.6c0.7-0.9,0.9-1.7,0.9-2.5
		c0-0.4,0-0.4-0.3-1h5.9c0,0.3,0.1,0.6,0.1,0.7c0,0.8-0.6,2.2-1.2,3.2l-5.6,7.9l-2.2,3.2c-1.2,1.7-2,3.3-2,4.3s0.8,1.7,1.9,1.7
		c0.6,0,1.5-0.4,2.2-0.9c0.7-0.7,1.9-1.6,3.3-2.9c1.9-1.7,3-2.8,3.5-3.2c0.3-0.4,0.9-1.3,2.2-3l5.5-7.8c0.7-0.9,1-2.1,1-2.6V9.6h5.7
		v0.9c0,0.5-0.7,1.7-1.8,3.3l-5.5,7.9l-2.2,2.9c-1.5,2.1-1.9,3-1.9,3.9c0,1.2,0.7,2,2.1,2c0.8,0,1.9-0.4,2.7-1.1
		c1.2-1,3.5-3.2,5.5-5.4c1.2-1.3,1.9-2,2.2-2.2c0.7-0.8,1.4-1.5,1.6-1.9c0.3-0.6,0.5-0.8,0.7-0.8c0.4,0,0.6,0.1,0.6,0.3
		c0,0.3-0.2,0.5-0.7,0.9l-1.6,2l-2.2,2.3l-2.9,3.1c-3,3.2-6.2,5.2-8.7,5.2s-4.2-1.5-4.2-3.6c0-1.1,0.6-2.8,1.6-4.5
		C130.6,30.6,127.5,32.8,124.5,32.8z"/>
	<path class="st0" d="M186.3-3.4c1.3-1.8,1.7-2.5,1.7-3.2c0-0.4,0-0.7-0.1-1.2h5.6v1.1c0,0.8-0.4,1.8-1.5,3.3l-18.3,26
		c-2.2,3.1-3.2,5.2-3.2,6.6c0,1.2,0.4,1.7,1.4,1.7c0.8,0,1.9-0.3,2.7-0.9c2.1-1.5,4.9-4.1,6.4-5.7l2.2-2.3c0.8-1,1.4-1.7,1.6-2
		c0.2-0.6,0.5-0.9,0.8-0.9c0.2,0,0.3,0.1,0.3,0.3c0,0.2-0.2,0.6-0.7,1c-0.1,0.2-0.7,0.9-1.7,2c-0.7,1-2.4,2.9-4.3,4.6
		c-4,4.1-7,5.7-9.7,5.7c-2.3,0-3.7-1.1-3.7-3c0-0.8,0.2-1.8,0.5-2.9c0.1-0.4,0.2-0.8,0.5-1.6c-1.1,1.1-2,1.9-2.4,2.4
		c-1.2,1.2-2.3,2.2-3.3,3c-1.6,1.4-3.7,2.4-5.3,2.4c-3.3,0-5.1-1.9-5.1-4.9c0-2.5,1.2-5.6,3.1-8.2c2.1-2.9,5.4-5.7,9.7-8
		c3.1-1.7,5.9-2.6,7.8-2.6c2.2,0,3.4,0.8,4,3.1L186.3-3.4z M170.7,18.2l2.9-4.2c0.3-0.4,0.4-0.9,0.4-1.4c0-1.7-0.8-2.8-2.2-2.8
		c-2.3,0-6.6,3-10.4,7.4c-3.5,4-6.1,8.4-6.1,10.4c0,1.8,0.9,2.9,2.4,2.9c0.9,0,2.3-0.6,3.3-1.2c1-0.9,2.1-1.8,3.2-2.9
		c1.6-1.6,2.7-2.7,3.1-3.2L170.7,18.2z"/>
	<path class="st0" d="M186.5,27.6c0,2,1.3,3.1,3.7,3.1c3.3,0,6.8-2.1,11-6.6c1.1-1.2,1.9-1.9,2.2-2.2c0.8-0.8,1.4-1.5,1.6-2
		c0.4-0.7,0.7-1,0.9-1c0.2,0,0.3,0.1,0.3,0.2c0,0.3-0.2,0.7-0.6,1.2l-1.5,2l-2.2,2.2l-2.3,2.5c-1.5,1.6-4.4,3.7-6.6,4.6
		c-1.5,0.6-3.5,1-5.2,1c-4.3,0-6.4-1.9-6.4-5.5c0-3,2.1-6.9,5.8-10.4c4.6-4.5,11-7.5,15.3-7.5c2.3,0,3.5,0.7,3.5,2.2
		c0,3.7-7.4,8.3-17,10.3C187.1,24.6,186.5,26.1,186.5,27.6z M189.2,20.8c7.1-1.2,13.8-5.9,13.8-9.7c0-0.7-0.7-1.2-1.6-1.2
		c-1.6,0-3.4,1.3-8,5.7C191.9,17,191,18.2,189.2,20.8z"/>
</g>
</svg>
