<?xml version="1.0" encoding="utf-8"?>
<!-- Generator: Adobe Illustrator 28.1.0, SVG Export Plug-In . SVG Version: 6.00 Build 0)  -->
<svg version="1.1" id="Layer_1" xmlns="http://www.w3.org/2000/svg" xmlns:xlink="http://www.w3.org/1999/xlink" x="0px" y="0px"
	 viewBox="0 0 498.58 65.46" style="enable-background:new 0 0 498.58 65.46;" xml:space="preserve">
<g>
	<path d="M0,2.19h13.59v50.37h30.12v11.42H0V2.19z"/>
	<path d="M47.25,20.54c1.38-3.98,3.38-7.44,5.97-10.39c2.6-2.94,5.77-5.25,9.52-6.92c3.75-1.67,8.02-2.51,12.81-2.51
		c4.79,0,9.06,0.84,12.81,2.51c3.75,1.67,6.92,3.98,9.52,6.92c2.6,2.94,4.59,6.4,5.97,10.39s2.08,8.25,2.08,12.81
		c0,4.44-0.69,8.63-2.08,12.55c-1.38,3.92-3.38,7.33-5.97,10.21c-2.6,2.89-5.77,5.16-9.52,6.84c-3.75,1.67-8.02,2.51-12.81,2.51
		c-4.79,0-9.06-0.84-12.81-2.51c-3.75-1.67-6.92-3.95-9.52-6.84c-2.6-2.88-4.59-6.29-5.97-10.21c-1.38-3.92-2.08-8.1-2.08-12.55
		C45.18,28.79,45.87,24.52,47.25,20.54z M59.67,40.92c0.61,2.45,1.57,4.66,2.9,6.62c1.33,1.96,3.06,3.53,5.19,4.72
		c2.13,1.18,4.73,1.77,7.79,1.77c3.06,0,5.65-0.59,7.79-1.77c2.13-1.18,3.86-2.75,5.19-4.72c1.33-1.96,2.29-4.17,2.9-6.62
		c0.61-2.45,0.91-4.98,0.91-7.57c0-2.71-0.3-5.34-0.91-7.88c-0.61-2.54-1.57-4.8-2.9-6.79c-1.33-1.99-3.06-3.58-5.19-4.76
		c-2.14-1.18-4.73-1.77-7.79-1.77c-3.06,0-5.66,0.59-7.79,1.77c-2.14,1.18-3.87,2.77-5.19,4.76c-1.33,1.99-2.29,4.26-2.9,6.79
		c-0.61,2.54-0.91,5.16-0.91,7.88C58.76,35.95,59.07,38.47,59.67,40.92z"/>
	<path d="M115.19,2.19h13.5l25.79,41.45h0.17V2.19h12.72v61.79h-13.59l-25.7-41.37h-0.17v41.37h-12.72V2.19z"/>
	<path d="M223.98,56.98c-2.42,3.12-5.11,5.31-8.05,6.58c-2.94,1.27-5.91,1.9-8.91,1.9c-4.79,0-9.06-0.84-12.81-2.51
		c-3.75-1.67-6.92-3.95-9.52-6.84c-2.6-2.88-4.59-6.29-5.97-10.21c-1.38-3.92-2.08-8.1-2.08-12.55c0-4.56,0.69-8.83,2.08-12.81
		s3.38-7.44,5.97-10.39c2.6-2.94,5.77-5.25,9.52-6.92c3.75-1.67,8.02-2.51,12.81-2.51c3.17,0,6.24,0.48,9.22,1.43
		c2.97,0.95,5.64,2.35,8.01,4.2c2.37,1.85,4.34,4.13,5.93,6.84c1.59,2.71,2.55,5.83,2.9,9.35h-12.98c-0.81-3.46-2.38-6.06-4.72-7.79
		c-2.34-1.73-5.12-2.6-8.35-2.6c-3.06,0-5.66,0.59-7.79,1.77c-2.14,1.18-3.87,2.77-5.19,4.76c-1.33,1.99-2.29,4.26-2.9,6.79
		c-0.61,2.54-0.91,5.16-0.91,7.88c0,2.6,0.3,5.12,0.91,7.57c0.61,2.45,1.57,4.66,2.9,6.62c1.33,1.96,3.06,3.53,5.19,4.72
		c2.13,1.18,4.73,1.77,7.79,1.77c4.44,0,7.9-1.14,10.39-3.42c2.48-2.28,3.92-5.58,4.33-9.91h-13.67V30.58h25.96v33.41h-8.65
		L223.98,56.98z"/>
	<path d="M245,2.19h13.59v61.79H245V2.19z"/>
	<path d="M284.21,13.62h-18.52V2.19h50.63v11.42H297.8v50.37h-13.59V13.62z"/>
	<path d="M375.86,40.62c0,8.37-2.34,14.6-7.01,18.69c-4.67,4.1-11.14,6.14-19.39,6.14c-8.37,0-14.84-2.03-19.43-6.1
		c-4.59-4.07-6.88-10.31-6.88-18.74V2.19h13.59v38.43c0,1.67,0.14,3.32,0.43,4.93c0.29,1.62,0.89,3.06,1.82,4.33
		c0.92,1.27,2.21,2.28,3.85,3.03c1.64,0.75,3.85,1.12,6.62,1.12c4.85,0,8.19-1.08,10.04-3.25c1.85-2.16,2.77-5.55,2.77-10.17V2.19
		h13.59V40.62z"/>
	<path d="M387.54,2.19h26.66c3.98,0,7.69,0.64,11.12,1.9c3.43,1.27,6.4,3.17,8.91,5.71c2.51,2.54,4.47,5.71,5.88,9.52
		c1.41,3.81,2.12,8.28,2.12,13.41c0,4.5-0.58,8.65-1.73,12.46c-1.16,3.81-2.9,7.1-5.24,9.87s-5.25,4.95-8.74,6.53
		c-3.49,1.59-7.6,2.38-12.33,2.38h-26.66V2.19z M401.13,52.56h12.12c1.96,0,3.87-0.32,5.71-0.95c1.85-0.63,3.49-1.69,4.93-3.16
		c1.44-1.47,2.6-3.39,3.46-5.75c0.87-2.37,1.3-5.25,1.3-8.65c0-3.12-0.3-5.93-0.91-8.44c-0.61-2.51-1.6-4.66-2.99-6.45
		c-1.38-1.79-3.22-3.16-5.5-4.11s-5.09-1.43-8.44-1.43h-9.69V52.56z"/>
	<path d="M451.67,2.19h46.21v11.42h-32.63v13.24h29.94v10.56h-29.94v15.15h33.32v11.42h-46.91V2.19z"/>
</g>
</svg>
