<?xml version="1.0" encoding="utf-8"?>
<!-- Generator: Adobe Illustrator 28.1.0, SVG Export Plug-In . SVG Version: 6.00 Build 0)  -->
<svg version="1.1" id="Layer_1" xmlns="http://www.w3.org/2000/svg" xmlns:xlink="http://www.w3.org/1999/xlink" x="0px" y="0px"
	 viewBox="0 0 83.64 83.64" style="enable-background:new 0 0 83.64 83.64;" xml:space="preserve">
<style type="text/css">
	.st0{display:none;fill:#4DB748;}
	.st1{display:none;fill:#B44C9C;}
	.st2{display:none;fill:#E9D918;}
	.st3{display:none;fill:#3B4DA1;}
	.st4{display:none;}
	.st5{display:none;fill:#EC2450;}
	.st6{fill:#EC2450;stroke:#ED214F;stroke-width:1.5;stroke-miterlimit:10;}
</style>
<text transform="matrix(1 0 0 1 169.5777 -234.6791)" class="st4" style="font-family:'Scythe-Regular'; font-size:12px;">L</text>
<rect x="200.77" y="-201.53" class="st0" width="39.06" height="39.06"/>
<rect x="239.83" y="-201.53" class="st1" width="39.06" height="39.06"/>
<rect x="239.83" y="-162.47" class="st2" width="39.06" height="39.06"/>
<rect x="200.77" y="-162.47" class="st3" width="39.06" height="39.06"/>
<rect x="100" y="-201.53" class="st0" width="39.06" height="39.06"/>
<rect x="139.07" y="-201.53" class="st1" width="39.06" height="39.06"/>
<rect x="139.07" y="-162.47" class="st2" width="39.06" height="39.06"/>
<rect x="100" y="-162.47" class="st3" width="39.06" height="39.06"/>
<path class="st4" d="M236.89-144.23c-0.47,1.24-1.08,2.36-1.81,3.33c-0.3,0.4-0.66,0.81-1.07,1.21c-0.38,0.37-0.82,0.71-1.29,1
	c-0.48,0.29-1.01,0.53-1.59,0.71c-1.34,0.42-3.08,0.36-5.16-0.42c-1.25-0.46-2.65-1.27-4.19-2.39l-1.73-1.25l9.39-10l-10.19,5.07
	l14.23-15.49l-10.95,5.17l-19.23,20.92l9.9-4.92l5.31,3.85c1.89,1.42,3.66,2.39,5.27,2.9c1.6,0.51,3.06,0.77,4.32,0.77
	c0.8,0,1.52-0.06,2.14-0.19c0.63-0.12,1.15-0.27,1.61-0.45c0.52-0.21,0.97-0.43,1.28-0.62c0.66-0.32,1.25-0.7,1.77-1.13
	c0.51-0.43,0.96-0.89,1.35-1.37c0.38-0.47,0.71-0.96,0.99-1.46c0.28-0.5,0.5-0.96,0.69-1.4c0.45-1.07,0.74-2.21,0.89-3.36l1.01-8.22
	L236.89-144.23z"/>
<path class="st4" d="M105.48-152.01c0.47-1.24,1.08-2.36,1.81-3.33c0.3-0.4,0.66-0.81,1.07-1.21c0.38-0.37,0.82-0.71,1.29-1
	c0.48-0.29,1.01-0.53,1.59-0.71c1.34-0.42,3.08-0.36,5.16,0.42c1.25,0.46,2.65,1.27,4.19,2.39l1.73,1.25l-9.39,10l10.19-5.07
	l-14.23,15.49l10.95-5.17l19.23-20.92l-9.9,4.92l-5.31-3.85c-1.89-1.42-3.66-2.39-5.27-2.9c-1.6-0.51-3.06-0.77-4.32-0.77
	c-0.8,0-1.52,0.06-2.14,0.19c-0.63,0.12-1.15,0.27-1.61,0.45c-0.52,0.21-0.97,0.43-1.28,0.62c-0.66,0.32-1.25,0.7-1.77,1.13
	c-0.51,0.43-0.96,0.89-1.35,1.37c-0.38,0.47-0.71,0.96-0.99,1.46c-0.28,0.5-0.5,0.96-0.69,1.4c-0.45,1.07-0.74,2.21-0.89,3.36
	l-1.01,8.22L105.48-152.01z"/>
<path class="st4" d="M128.61-196.05c1.24,0.47,2.36,1.08,3.33,1.81c0.4,0.3,0.81,0.66,1.21,1.07c0.37,0.38,0.71,0.82,1,1.29
	c0.29,0.48,0.53,1.01,0.71,1.59c0.42,1.34,0.36,3.08-0.42,5.16c-0.46,1.25-1.27,2.65-2.39,4.19l-1.25,1.73l-10-9.39l5.07,10.19
	l-15.49-14.23l5.17,10.95l20.92,19.23l-4.92-9.9l3.85-5.31c1.42-1.89,2.39-3.66,2.9-5.27c0.51-1.6,0.77-3.06,0.77-4.32
	c0-0.8-0.06-1.52-0.19-2.14c-0.12-0.63-0.27-1.15-0.45-1.61c-0.21-0.52-0.43-0.97-0.62-1.28c-0.32-0.66-0.7-1.25-1.13-1.77
	c-0.43-0.51-0.89-0.96-1.37-1.35c-0.47-0.38-0.96-0.71-1.46-0.99c-0.5-0.28-0.96-0.5-1.4-0.69c-1.07-0.45-2.21-0.74-3.36-0.89
	l-8.22-1.01L128.61-196.05z"/>
<path class="st4" d="M172.65-172.92c-0.47,1.24-1.08,2.36-1.81,3.33c-0.3,0.4-0.66,0.81-1.07,1.21c-0.38,0.37-0.82,0.71-1.29,1
	c-0.48,0.29-1.01,0.53-1.59,0.71c-1.34,0.42-3.08,0.36-5.16-0.42c-1.25-0.46-2.65-1.27-4.19-2.39l-1.73-1.25l9.39-10l-10.19,5.07
	l14.23-15.49l-10.95,5.17l-19.23,20.92l9.9-4.92l5.31,3.85c1.89,1.42,3.66,2.39,5.27,2.9c1.6,0.51,3.06,0.77,4.32,0.77
	c0.8,0,1.52-0.06,2.14-0.19c0.63-0.12,1.15-0.27,1.61-0.45c0.52-0.21,0.97-0.43,1.28-0.62c0.66-0.32,1.25-0.7,1.77-1.13
	c0.51-0.43,0.96-0.89,1.35-1.37c0.38-0.47,0.71-0.96,0.99-1.46c0.28-0.5,0.5-0.96,0.69-1.4c0.45-1.07,0.74-2.21,0.89-3.36l1.01-8.22
	L172.65-172.92z"/>
<path class="st4" d="M149.52-128.88c-1.24-0.47-2.36-1.08-3.33-1.81c-0.4-0.3-0.81-0.66-1.21-1.07c-0.37-0.38-0.71-0.82-1-1.29
	c-0.29-0.48-0.53-1.01-0.71-1.59c-0.42-1.34-0.36-3.08,0.42-5.16c0.46-1.25,1.27-2.65,2.39-4.19l1.25-1.73l10,9.39l-5.07-10.19
	l15.49,14.23l-5.17-10.95l-20.92-19.23l4.92,9.9l-3.85,5.31c-1.42,1.89-2.39,3.66-2.9,5.27c-0.51,1.6-0.77,3.06-0.77,4.32
	c0,0.8,0.06,1.52,0.19,2.14c0.12,0.63,0.27,1.15,0.45,1.61c0.21,0.52,0.43,0.97,0.62,1.28c0.32,0.66,0.7,1.25,1.13,1.77
	c0.43,0.51,0.89,0.96,1.37,1.35c0.47,0.38,0.96,0.71,1.46,0.99c0.5,0.28,0.96,0.5,1.4,0.69c1.07,0.45,2.21,0.74,3.36,0.89l8.22,1.01
	L149.52-128.88z"/>
<path class="st4" d="M221.6-165.41c-1.24-0.47-2.36-1.08-3.33-1.81c-0.4-0.3-0.81-0.66-1.21-1.07c-0.37-0.38-0.71-0.82-1-1.29
	c-0.29-0.48-0.53-1.01-0.71-1.59c-0.42-1.34-0.36-3.08,0.42-5.16c0.46-1.25,1.27-2.65,2.39-4.19l1.25-1.73l10,9.39l-5.07-10.19
	l15.49,14.23l-5.17-10.95l-20.92-19.23l4.92,9.9l-3.85,5.31c-1.42,1.89-2.39,3.66-2.9,5.27c-0.51,1.6-0.77,3.06-0.77,4.32
	c0,0.8,0.06,1.52,0.19,2.14c0.12,0.63,0.27,1.15,0.45,1.61c0.21,0.52,0.43,0.97,0.62,1.28c0.32,0.66,0.7,1.25,1.13,1.77
	c0.43,0.51,0.89,0.96,1.37,1.35c0.47,0.38,0.96,0.71,1.46,0.99c0.5,0.28,0.96,0.5,1.4,0.69c1.07,0.45,2.21,0.74,3.36,0.89l8.22,1.01
	L221.6-165.41z"/>
<path class="st4" d="M242.77-180.7c0.47-1.24,1.08-2.36,1.81-3.33c0.3-0.4,0.66-0.81,1.07-1.21c0.38-0.37,0.82-0.71,1.29-1
	c0.48-0.29,1.01-0.53,1.59-0.71c1.34-0.42,3.08-0.36,5.16,0.42c1.25,0.46,2.65,1.27,4.19,2.39l1.73,1.25l-9.39,10l10.19-5.07
	l-14.23,15.49l10.95-5.17l19.23-20.92l-9.9,4.92l-5.31-3.85c-1.89-1.42-3.66-2.39-5.27-2.9c-1.6-0.51-3.06-0.77-4.32-0.77
	c-0.8,0-1.52,0.06-2.14,0.19c-0.63,0.12-1.15,0.27-1.61,0.45c-0.52,0.21-0.97,0.43-1.28,0.62c-0.66,0.32-1.25,0.7-1.77,1.13
	c-0.51,0.43-0.96,0.89-1.35,1.37c-0.38,0.47-0.71,0.96-0.99,1.46c-0.28,0.5-0.5,0.96-0.69,1.4c-0.45,1.07-0.74,2.21-0.89,3.36
	l-1.01,8.22L242.77-180.7z"/>
<path class="st4" d="M258.07-159.53c1.24,0.47,2.36,1.08,3.33,1.81c0.4,0.3,0.81,0.66,1.21,1.07c0.37,0.38,0.71,0.82,1,1.29
	c0.29,0.48,0.53,1.01,0.71,1.59c0.42,1.34,0.36,3.08-0.42,5.16c-0.46,1.25-1.27,2.65-2.39,4.19l-1.25,1.73l-10-9.39l5.07,10.19
	l-15.49-14.23l5.17,10.95l20.92,19.23l-4.92-9.9l3.85-5.31c1.42-1.89,2.39-3.66,2.9-5.27c0.51-1.6,0.77-3.06,0.77-4.32
	c0-0.8-0.06-1.52-0.19-2.14c-0.12-0.63-0.27-1.15-0.45-1.61c-0.21-0.52-0.43-0.97-0.62-1.28c-0.32-0.66-0.7-1.25-1.13-1.77
	c-0.43-0.51-0.89-0.96-1.37-1.35c-0.47-0.38-0.96-0.71-1.46-0.99c-0.5-0.28-0.96-0.5-1.4-0.69c-1.07-0.45-2.21-0.74-3.36-0.89
	l-8.22-1.01L258.07-159.53z"/>
<path class="st5" d="M194.88,60.06c-0.47,1.24-1.08,2.36-1.81,3.33c-0.3,0.4-0.66,0.81-1.07,1.21c-0.38,0.37-0.82,0.71-1.29,1
	c-0.48,0.29-1.01,0.53-1.59,0.71c-1.34,0.42-3.08,0.36-5.16-0.42c-1.25-0.46-2.65-1.27-4.19-2.39l-1.73-1.25l9.39-10l-10.19,5.07
	l14.23-15.49l-10.95,5.17L161.3,67.91l9.9-4.92l5.31,3.85c1.89,1.42,3.66,2.39,5.27,2.9c1.6,0.51,3.06,0.77,4.32,0.77
	c0.8,0,1.52-0.06,2.14-0.19c0.63-0.12,1.15-0.27,1.61-0.45c0.52-0.21,0.97-0.43,1.28-0.62c0.66-0.32,1.25-0.7,1.77-1.13
	c0.51-0.43,0.96-0.89,1.35-1.37c0.38-0.47,0.71-0.96,0.99-1.46c0.28-0.5,0.5-0.96,0.69-1.4c0.45-1.07,0.74-2.21,0.89-3.36l1.01-8.22
	L194.88,60.06z"/>
<path class="st5" d="M179.58,38.88c-1.24-0.47-2.36-1.08-3.33-1.81c-0.4-0.3-0.81-0.66-1.21-1.07c-0.37-0.38-0.71-0.82-1-1.29
	c-0.29-0.48-0.53-1.01-0.71-1.59c-0.42-1.34-0.36-3.08,0.42-5.16c0.46-1.25,1.27-2.65,2.39-4.19l1.25-1.73l10,9.39l-5.07-10.19
	l15.49,14.23l-5.17-10.95L171.73,5.3l4.92,9.9l-3.85,5.31c-1.42,1.89-2.39,3.66-2.9,5.27c-0.51,1.6-0.77,3.06-0.77,4.32
	c0,0.8,0.06,1.52,0.19,2.14c0.12,0.63,0.27,1.15,0.45,1.61c0.21,0.52,0.43,0.97,0.62,1.28c0.32,0.66,0.7,1.25,1.13,1.77
	c0.43,0.51,0.89,0.96,1.37,1.35c0.47,0.38,0.96,0.71,1.46,0.99c0.5,0.28,0.96,0.5,1.4,0.69c1.07,0.45,2.21,0.74,3.36,0.89l8.22,1.01
	L179.58,38.88z"/>
<path class="st5" d="M200.76,23.58c0.47-1.24,1.08-2.36,1.81-3.33c0.3-0.4,0.66-0.81,1.07-1.21c0.38-0.37,0.82-0.71,1.29-1
	c0.48-0.29,1.01-0.53,1.59-0.71c1.34-0.42,3.08-0.36,5.16,0.42c1.25,0.46,2.65,1.27,4.19,2.39l1.73,1.25l-9.39,10l10.19-5.07
	l-14.23,15.49l10.95-5.17l19.23-20.92l-9.9,4.92l-5.31-3.85c-1.89-1.42-3.66-2.39-5.27-2.9c-1.6-0.51-3.06-0.77-4.32-0.77
	c-0.8,0-1.52,0.06-2.14,0.19c-0.63,0.12-1.15,0.27-1.61,0.45c-0.52,0.21-0.97,0.43-1.28,0.62c-0.66,0.32-1.25,0.7-1.77,1.13
	c-0.51,0.43-0.96,0.89-1.35,1.37c-0.38,0.47-0.71,0.96-0.99,1.46c-0.28,0.5-0.5,0.96-0.69,1.4c-0.45,1.07-0.74,2.21-0.89,3.36
	l-1.01,8.22L200.76,23.58z"/>
<path class="st5" d="M216.06,44.76c1.24,0.47,2.36,1.08,3.33,1.81c0.4,0.3,0.81,0.66,1.21,1.07c0.37,0.38,0.71,0.82,1,1.29
	c0.29,0.48,0.53,1.01,0.71,1.59c0.42,1.34,0.36,3.08-0.42,5.16c-0.46,1.25-1.27,2.65-2.39,4.19l-1.25,1.73l-10-9.39l5.07,10.19
	l-15.49-14.23l5.17,10.95l20.92,19.23l-4.92-9.9l3.85-5.31c1.42-1.89,2.39-3.66,2.9-5.27c0.51-1.6,0.77-3.06,0.77-4.32
	c0-0.8-0.06-1.52-0.19-2.14c-0.12-0.63-0.27-1.15-0.45-1.61c-0.21-0.52-0.43-0.97-0.62-1.28c-0.32-0.66-0.7-1.25-1.13-1.77
	c-0.43-0.51-0.89-0.96-1.37-1.35c-0.47-0.38-0.96-0.71-1.46-0.99c-0.5-0.28-0.96-0.5-1.4-0.69c-1.07-0.45-2.21-0.74-3.36-0.89
	l-8.22-1.01L216.06,44.76z"/>
<path class="st6" d="M36.88,62.06c-0.47,1.24-1.08,2.36-1.81,3.33c-0.3,0.4-0.66,0.81-1.07,1.21c-0.38,0.37-0.82,0.71-1.29,1
	c-0.48,0.29-1.01,0.53-1.59,0.71c-1.34,0.42-3.08,0.36-5.16-0.42c-1.25-0.46-2.65-1.27-4.19-2.39l-1.73-1.25l9.39-10l-10.19,5.07
	l14.23-15.49l-10.95,5.17L3.3,69.91l9.9-4.92l5.31,3.85c1.89,1.42,3.66,2.39,5.27,2.9c1.6,0.51,3.06,0.77,4.32,0.77
	c0.8,0,1.52-0.06,2.14-0.19c0.63-0.12,1.15-0.27,1.61-0.45c0.52-0.21,0.97-0.43,1.28-0.62c0.66-0.32,1.25-0.7,1.77-1.13
	c0.51-0.43,0.96-0.89,1.35-1.37c0.38-0.47,0.71-0.96,0.99-1.46c0.28-0.5,0.5-0.96,0.69-1.4c0.45-1.07,0.74-2.21,0.89-3.36l1.01-8.22
	L36.88,62.06z"/>
<path class="st6" d="M21.58,36.88c-1.24-0.47-2.36-1.08-3.33-1.81c-0.4-0.3-0.81-0.66-1.21-1.07c-0.37-0.38-0.71-0.82-1-1.29
	c-0.29-0.48-0.53-1.01-0.71-1.59c-0.42-1.34-0.36-3.08,0.42-5.16c0.46-1.25,1.27-2.65,2.39-4.19l1.25-1.73l10,9.39l-5.07-10.19
	l15.49,14.23l-5.17-10.95L13.73,3.3l4.92,9.9L14.8,18.5c-1.42,1.89-2.39,3.66-2.9,5.27c-0.51,1.6-0.77,3.06-0.77,4.32
	c0,0.8,0.06,1.52,0.19,2.14c0.12,0.63,0.27,1.15,0.45,1.61c0.21,0.52,0.43,0.97,0.62,1.28c0.32,0.66,0.7,1.25,1.13,1.77
	c0.43,0.51,0.89,0.96,1.37,1.35c0.47,0.38,0.96,0.71,1.46,0.99c0.5,0.28,0.96,0.5,1.4,0.69c1.07,0.45,2.21,0.74,3.36,0.89l8.22,1.01
	L21.58,36.88z"/>
<path class="st6" d="M46.76,21.58c0.47-1.24,1.08-2.36,1.81-3.33c0.3-0.4,0.66-0.81,1.07-1.21c0.38-0.37,0.82-0.71,1.29-1
	c0.48-0.29,1.01-0.53,1.59-0.71c1.34-0.42,3.08-0.36,5.16,0.42c1.25,0.46,2.65,1.27,4.19,2.39l1.73,1.25l-9.39,10l10.19-5.07
	L50.17,39.82l10.95-5.17l19.23-20.92l-9.9,4.92l-5.31-3.85c-1.89-1.42-3.66-2.39-5.27-2.9c-1.6-0.51-3.06-0.77-4.32-0.77
	c-0.8,0-1.52,0.06-2.14,0.19c-0.63,0.12-1.15,0.27-1.61,0.45c-0.52,0.21-0.97,0.43-1.28,0.62c-0.66,0.32-1.25,0.7-1.77,1.13
	c-0.51,0.43-0.96,0.89-1.35,1.37c-0.38,0.47-0.71,0.96-0.99,1.46c-0.28,0.5-0.5,0.96-0.69,1.4c-0.45,1.07-0.74,2.21-0.89,3.36
	l-1.01,8.22L46.76,21.58z"/>
<path class="st6" d="M62.06,46.76c1.24,0.47,2.36,1.08,3.33,1.81c0.4,0.3,0.81,0.66,1.21,1.07c0.37,0.38,0.71,0.82,1,1.29
	c0.29,0.48,0.53,1.01,0.71,1.59c0.42,1.34,0.36,3.08-0.42,5.16c-0.46,1.25-1.27,2.65-2.39,4.19l-1.25,1.73l-10-9.39l5.07,10.19
	L43.82,50.17l5.17,10.95l20.92,19.23l-4.92-9.9l3.85-5.31c1.42-1.89,2.39-3.66,2.9-5.27c0.51-1.6,0.77-3.06,0.77-4.32
	c0-0.8-0.06-1.52-0.19-2.14c-0.12-0.63-0.27-1.15-0.45-1.61c-0.21-0.52-0.43-0.97-0.62-1.28c-0.32-0.66-0.7-1.25-1.13-1.77
	c-0.43-0.51-0.89-0.96-1.37-1.35c-0.47-0.38-0.96-0.71-1.46-0.99c-0.5-0.28-0.96-0.5-1.4-0.69c-1.07-0.45-2.21-0.74-3.36-0.89
	l-8.22-1.01L62.06,46.76z"/>
</svg>
