<?xml version="1.0" encoding="utf-8"?>
<!-- Generator: Adobe Illustrator 28.1.0, SVG Export Plug-In . SVG Version: 6.00 Build 0)  -->
<svg version="1.1" id="Layer_1" xmlns="http://www.w3.org/2000/svg" xmlns:xlink="http://www.w3.org/1999/xlink" x="0px" y="0px"
	 viewBox="0 0 83.64 83.64" style="enable-background:new 0 0 83.64 83.64;" xml:space="preserve">
<style type="text/css">
	.st0{display:none;fill:#4DB748;}
	.st1{display:none;fill:#B44C9C;}
	.st2{display:none;fill:#E9D918;}
	.st3{display:none;fill:#3B4DA1;}
	.st4{display:none;}
	.st5{display:none;fill:#EC2450;}
</style>
<text transform="matrix(1 0 0 1 169.5777 -234.6791)" style="font-family:'Scythe-Regular'; font-size:12px;">LONGITUDE</text>
<text transform="matrix(1 0 0 1 164.0558 -159.1985)" style="font-family:'SegoeScript'; font-size:12px;">LONGITUDE</text>
<rect x="200.77" y="-201.53" class="st0" width="39.06" height="39.06"/>
<rect x="239.83" y="-201.53" class="st1" width="39.06" height="39.06"/>
<rect x="239.83" y="-162.47" class="st2" width="39.06" height="39.06"/>
<rect x="200.77" y="-162.47" class="st3" width="39.06" height="39.06"/>
<rect x="100" y="-201.53" class="st0" width="39.06" height="39.06"/>
<rect x="139.07" y="-201.53" class="st1" width="39.06" height="39.06"/>
<rect x="139.07" y="-162.47" class="st2" width="39.06" height="39.06"/>
<rect x="100" y="-162.47" class="st3" width="39.06" height="39.06"/>
<path class="st4" d="M236.89-144.23c-0.47,1.24-1.08,2.36-1.81,3.33c-0.3,0.4-0.66,0.81-1.07,1.21c-0.38,0.37-0.82,0.71-1.29,1
	c-0.48,0.29-1.01,0.53-1.59,0.71c-1.34,0.42-3.08,0.36-5.16-0.42c-1.25-0.46-2.65-1.27-4.19-2.39l-1.73-1.25l9.39-10l-10.19,5.07
	l14.23-15.49l-10.95,5.17l-19.23,20.92l9.9-4.92l5.31,3.85c1.89,1.42,3.66,2.39,5.27,2.9c1.6,0.51,3.06,0.77,4.32,0.77
	c0.8,0,1.52-0.06,2.14-0.19c0.63-0.12,1.15-0.27,1.61-0.45c0.52-0.21,0.97-0.43,1.28-0.62c0.66-0.32,1.25-0.7,1.77-1.13
	c0.51-0.43,0.96-0.89,1.35-1.37c0.38-0.47,0.71-0.96,0.99-1.46c0.28-0.5,0.5-0.96,0.69-1.4c0.45-1.07,0.74-2.21,0.89-3.36l1.01-8.22
	L236.89-144.23z"/>
<path class="st4" d="M105.48-152.01c0.47-1.24,1.08-2.36,1.81-3.33c0.3-0.4,0.66-0.81,1.07-1.21c0.38-0.37,0.82-0.71,1.29-1
	c0.48-0.29,1.01-0.53,1.59-0.71c1.34-0.42,3.08-0.36,5.16,0.42c1.25,0.46,2.65,1.27,4.19,2.39l1.73,1.25l-9.39,10l10.19-5.07
	l-14.23,15.49l10.95-5.17l19.23-20.92l-9.9,4.92l-5.31-3.85c-1.89-1.42-3.66-2.39-5.27-2.9c-1.6-0.51-3.06-0.77-4.32-0.77
	c-0.8,0-1.52,0.06-2.14,0.19c-0.63,0.12-1.15,0.27-1.61,0.45c-0.52,0.21-0.97,0.43-1.28,0.62c-0.66,0.32-1.25,0.7-1.77,1.13
	c-0.51,0.43-0.96,0.89-1.35,1.37c-0.38,0.47-0.71,0.96-0.99,1.46c-0.28,0.5-0.5,0.96-0.69,1.4c-0.45,1.07-0.74,2.21-0.89,3.36
	l-1.01,8.22L105.48-152.01z"/>
<path class="st4" d="M128.61-196.05c1.24,0.47,2.36,1.08,3.33,1.81c0.4,0.3,0.81,0.66,1.21,1.07c0.37,0.38,0.71,0.82,1,1.29
	c0.29,0.48,0.53,1.01,0.71,1.59c0.42,1.34,0.36,3.08-0.42,5.16c-0.46,1.25-1.27,2.65-2.39,4.19l-1.25,1.73l-10-9.39l5.07,10.19
	l-15.49-14.23l5.17,10.95l20.92,19.23l-4.92-9.9l3.85-5.31c1.42-1.89,2.39-3.66,2.9-5.27c0.51-1.6,0.77-3.06,0.77-4.32
	c0-0.8-0.06-1.52-0.19-2.14c-0.12-0.63-0.27-1.15-0.45-1.61c-0.21-0.52-0.43-0.97-0.62-1.28c-0.32-0.66-0.7-1.25-1.13-1.77
	c-0.43-0.51-0.89-0.96-1.37-1.35c-0.47-0.38-0.96-0.71-1.46-0.99c-0.5-0.28-0.96-0.5-1.4-0.69c-1.07-0.45-2.21-0.74-3.36-0.89
	l-8.22-1.01L128.61-196.05z"/>
<path class="st4" d="M172.65-172.92c-0.47,1.24-1.08,2.36-1.81,3.33c-0.3,0.4-0.66,0.81-1.07,1.21c-0.38,0.37-0.82,0.71-1.29,1
	c-0.48,0.29-1.01,0.53-1.59,0.71c-1.34,0.42-3.08,0.36-5.16-0.42c-1.25-0.46-2.65-1.27-4.19-2.39l-1.73-1.25l9.39-10l-10.19,5.07
	l14.23-15.49l-10.95,5.17l-19.23,20.92l9.9-4.92l5.31,3.85c1.89,1.42,3.66,2.39,5.27,2.9c1.6,0.51,3.06,0.77,4.32,0.77
	c0.8,0,1.52-0.06,2.14-0.19c0.63-0.12,1.15-0.27,1.61-0.45c0.52-0.21,0.97-0.43,1.28-0.62c0.66-0.32,1.25-0.7,1.77-1.13
	c0.51-0.43,0.96-0.89,1.35-1.37c0.38-0.47,0.71-0.96,0.99-1.46c0.28-0.5,0.5-0.96,0.69-1.4c0.45-1.07,0.74-2.21,0.89-3.36l1.01-8.22
	L172.65-172.92z"/>
<path class="st4" d="M149.52-128.88c-1.24-0.47-2.36-1.08-3.33-1.81c-0.4-0.3-0.81-0.66-1.21-1.07c-0.37-0.38-0.71-0.82-1-1.29
	c-0.29-0.48-0.53-1.01-0.71-1.59c-0.42-1.34-0.36-3.08,0.42-5.16c0.46-1.25,1.27-2.65,2.39-4.19l1.25-1.73l10,9.39l-5.07-10.19
	l15.49,14.23l-5.17-10.95l-20.92-19.23l4.92,9.9l-3.85,5.31c-1.42,1.89-2.39,3.66-2.9,5.27c-0.51,1.6-0.77,3.06-0.77,4.32
	c0,0.8,0.06,1.52,0.19,2.14c0.12,0.63,0.27,1.15,0.45,1.61c0.21,0.52,0.43,0.97,0.62,1.28c0.32,0.66,0.7,1.25,1.13,1.77
	c0.43,0.51,0.89,0.96,1.37,1.35c0.47,0.38,0.96,0.71,1.46,0.99c0.5,0.28,0.96,0.5,1.4,0.69c1.07,0.45,2.21,0.74,3.36,0.89l8.22,1.01
	L149.52-128.88z"/>
<path class="st4" d="M221.6-165.41c-1.24-0.47-2.36-1.08-3.33-1.81c-0.4-0.3-0.81-0.66-1.21-1.07c-0.37-0.38-0.71-0.82-1-1.29
	c-0.29-0.48-0.53-1.01-0.71-1.59c-0.42-1.34-0.36-3.08,0.42-5.16c0.46-1.25,1.27-2.65,2.39-4.19l1.25-1.73l10,9.39l-5.07-10.19
	l15.49,14.23l-5.17-10.95l-20.92-19.23l4.92,9.9l-3.85,5.31c-1.42,1.89-2.39,3.66-2.9,5.27c-0.51,1.6-0.77,3.06-0.77,4.32
	c0,0.8,0.06,1.52,0.19,2.14c0.12,0.63,0.27,1.15,0.45,1.61c0.21,0.52,0.43,0.97,0.62,1.28c0.32,0.66,0.7,1.25,1.13,1.77
	c0.43,0.51,0.89,0.96,1.37,1.35c0.47,0.38,0.96,0.71,1.46,0.99c0.5,0.28,0.96,0.5,1.4,0.69c1.07,0.45,2.21,0.74,3.36,0.89l8.22,1.01
	L221.6-165.41z"/>
<path class="st4" d="M242.77-180.7c0.47-1.24,1.08-2.36,1.81-3.33c0.3-0.4,0.66-0.81,1.07-1.21c0.38-0.37,0.82-0.71,1.29-1
	c0.48-0.29,1.01-0.53,1.59-0.71c1.34-0.42,3.08-0.36,5.16,0.42c1.25,0.46,2.65,1.27,4.19,2.39l1.73,1.25l-9.39,10l10.19-5.07
	l-14.23,15.49l10.95-5.17l19.23-20.92l-9.9,4.92l-5.31-3.85c-1.89-1.42-3.66-2.39-5.27-2.9c-1.6-0.51-3.06-0.77-4.32-0.77
	c-0.8,0-1.52,0.06-2.14,0.19c-0.63,0.12-1.15,0.27-1.61,0.45c-0.52,0.21-0.97,0.43-1.28,0.62c-0.66,0.32-1.25,0.7-1.77,1.13
	c-0.51,0.43-0.96,0.89-1.35,1.37c-0.38,0.47-0.71,0.96-0.99,1.46c-0.28,0.5-0.5,0.96-0.69,1.4c-0.45,1.07-0.74,2.21-0.89,3.36
	l-1.01,8.22L242.77-180.7z"/>
<path class="st4" d="M258.07-159.53c1.24,0.47,2.36,1.08,3.33,1.81c0.4,0.3,0.81,0.66,1.21,1.07c0.37,0.38,0.71,0.82,1,1.29
	c0.29,0.48,0.53,1.01,0.71,1.59c0.42,1.34,0.36,3.08-0.42,5.16c-0.46,1.25-1.27,2.65-2.39,4.19l-1.25,1.73l-10-9.39l5.07,10.19
	l-15.49-14.23l5.17,10.95l20.92,19.23l-4.92-9.9l3.85-5.31c1.42-1.89,2.39-3.66,2.9-5.27c0.51-1.6,0.77-3.06,0.77-4.32
	c0-0.8-0.06-1.52-0.19-2.14c-0.12-0.63-0.27-1.15-0.45-1.61c-0.21-0.52-0.43-0.97-0.62-1.28c-0.32-0.66-0.7-1.25-1.13-1.77
	c-0.43-0.51-0.89-0.96-1.37-1.35c-0.47-0.38-0.96-0.71-1.46-0.99c-0.5-0.28-0.96-0.5-1.4-0.69c-1.07-0.45-2.21-0.74-3.36-0.89
	l-8.22-1.01L258.07-159.53z"/>
<path class="st5" d="M194.88,60.06c-0.47,1.24-1.08,2.36-1.81,3.33c-0.3,0.4-0.66,0.81-1.07,1.21c-0.38,0.37-0.82,0.71-1.29,1
	c-0.48,0.29-1.01,0.53-1.59,0.71c-1.34,0.42-3.08,0.36-5.16-0.42c-1.25-0.46-2.65-1.27-4.19-2.39l-1.73-1.25l9.39-10l-10.19,5.07
	l14.23-15.49l-10.95,5.17L161.3,67.91l9.9-4.92l5.31,3.85c1.89,1.42,3.66,2.39,5.27,2.9c1.6,0.51,3.06,0.77,4.32,0.77
	c0.8,0,1.52-0.06,2.14-0.19c0.63-0.12,1.15-0.27,1.61-0.45c0.52-0.21,0.97-0.43,1.28-0.62c0.66-0.32,1.25-0.7,1.77-1.13
	c0.51-0.43,0.96-0.89,1.35-1.37c0.38-0.47,0.71-0.96,0.99-1.46c0.28-0.5,0.5-0.96,0.69-1.4c0.45-1.07,0.74-2.21,0.89-3.36l1.01-8.22
	L194.88,60.06z"/>
<path class="st5" d="M179.58,38.88c-1.24-0.47-2.36-1.08-3.33-1.81c-0.4-0.3-0.81-0.66-1.21-1.07c-0.37-0.38-0.71-0.82-1-1.29
	c-0.29-0.48-0.53-1.01-0.71-1.59c-0.42-1.34-0.36-3.08,0.42-5.16c0.46-1.25,1.27-2.65,2.39-4.19l1.25-1.73l10,9.39l-5.07-10.19
	l15.49,14.23l-5.17-10.95L171.73,5.3l4.92,9.9l-3.85,5.31c-1.42,1.89-2.39,3.66-2.9,5.27c-0.51,1.6-0.77,3.06-0.77,4.32
	c0,0.8,0.06,1.52,0.19,2.14c0.12,0.63,0.27,1.15,0.45,1.61c0.21,0.52,0.43,0.97,0.62,1.28c0.32,0.66,0.7,1.25,1.13,1.77
	c0.43,0.51,0.89,0.96,1.37,1.35c0.47,0.38,0.96,0.71,1.46,0.99c0.5,0.28,0.96,0.5,1.4,0.69c1.07,0.45,2.21,0.74,3.36,0.89l8.22,1.01
	L179.58,38.88z"/>
<path class="st5" d="M200.76,23.58c0.47-1.24,1.08-2.36,1.81-3.33c0.3-0.4,0.66-0.81,1.07-1.21c0.38-0.37,0.82-0.71,1.29-1
	c0.48-0.29,1.01-0.53,1.59-0.71c1.34-0.42,3.08-0.36,5.16,0.42c1.25,0.46,2.65,1.27,4.19,2.39l1.73,1.25l-9.39,10l10.19-5.07
	l-14.23,15.49l10.95-5.17l19.23-20.92l-9.9,4.92l-5.31-3.85c-1.89-1.42-3.66-2.39-5.27-2.9c-1.6-0.51-3.06-0.77-4.32-0.77
	c-0.8,0-1.52,0.06-2.14,0.19c-0.63,0.12-1.15,0.27-1.61,0.45c-0.52,0.21-0.97,0.43-1.28,0.62c-0.66,0.32-1.25,0.7-1.77,1.13
	c-0.51,0.43-0.96,0.89-1.35,1.37c-0.38,0.47-0.71,0.96-0.99,1.46c-0.28,0.5-0.5,0.96-0.69,1.4c-0.45,1.07-0.74,2.21-0.89,3.36
	l-1.01,8.22L200.76,23.58z"/>
<path class="st5" d="M216.06,44.76c1.24,0.47,2.36,1.08,3.33,1.81c0.4,0.3,0.81,0.66,1.21,1.07c0.37,0.38,0.71,0.82,1,1.29
	c0.29,0.48,0.53,1.01,0.71,1.59c0.42,1.34,0.36,3.08-0.42,5.16c-0.46,1.25-1.27,2.65-2.39,4.19l-1.25,1.73l-10-9.39l5.07,10.19
	l-15.49-14.23l5.17,10.95l20.92,19.23l-4.92-9.9l3.85-5.31c1.42-1.89,2.39-3.66,2.9-5.27c0.51-1.6,0.77-3.06,0.77-4.32
	c0-0.8-0.06-1.52-0.19-2.14c-0.12-0.63-0.27-1.15-0.45-1.61c-0.21-0.52-0.43-0.97-0.62-1.28c-0.32-0.66-0.7-1.25-1.13-1.77
	c-0.43-0.51-0.89-0.96-1.37-1.35c-0.47-0.38-0.96-0.71-1.46-0.99c-0.5-0.28-0.96-0.5-1.4-0.69c-1.07-0.45-2.21-0.74-3.36-0.89
	l-8.22-1.01L216.06,44.76z"/>
<g>
	<path d="M34.47,64.94c-0.28,0.38-0.62,0.76-0.99,1.12c-0.34,0.33-0.73,0.63-1.16,0.89c-0.43,0.26-0.91,0.47-1.43,0.63
		c-1.27,0.4-2.89,0.26-4.67-0.41c-1.18-0.44-2.53-1.21-4.01-2.3l-1.04-0.75l11.67-12.42l-10.3,5.12L36.62,41.5l-14.55,6.87L0,72.39
		l13.12-6.52l4.94,3.58c1.96,1.47,3.8,2.48,5.5,3.02c1.68,0.53,3.21,0.8,4.54,0.8c0.85,0,1.62-0.07,2.29-0.2
		c0.67-0.13,1.24-0.29,1.75-0.49c0.55-0.22,1.05-0.46,1.32-0.64c0.71-0.35,1.36-0.76,1.92-1.23c0.55-0.46,1.04-0.95,1.45-1.47
		c0.4-0.5,0.76-1.03,1.06-1.56c0.29-0.52,0.53-1.01,0.73-1.48c0.47-1.14,0.79-2.33,0.94-3.56l1.77-14.38l-5.14,13.54
		C35.73,62.97,35.16,64.03,34.47,64.94z"/>
	<path d="M11.07,32.13c0.22,0.55,0.46,1.05,0.64,1.32c0.34,0.71,0.76,1.36,1.23,1.92c0.46,0.55,0.95,1.04,1.47,1.45
		c0.5,0.4,1.03,0.76,1.56,1.06c0.52,0.3,1.01,0.53,1.48,0.72c1.13,0.47,2.33,0.79,3.56,0.94l14.38,1.77l-13.54-5.14
		c-1.17-0.45-2.23-1.02-3.15-1.71c-0.38-0.28-0.75-0.62-1.12-0.99c-0.33-0.34-0.63-0.73-0.89-1.16c-0.26-0.43-0.47-0.91-0.63-1.43
		c-0.4-1.27-0.26-2.89,0.41-4.67c0.44-1.18,1.21-2.53,2.3-4.01l0.75-1.04l12.42,11.66l-5.12-10.3l15.33,14.09l-6.87-14.55L11.25,0
		l6.52,13.12l-3.58,4.94c-1.47,1.96-2.48,3.8-3.02,5.5c-0.53,1.68-0.8,3.21-0.8,4.54c0,0.85,0.07,1.62,0.2,2.29
		C10.72,31.05,10.87,31.62,11.07,32.13z"/>
	<path d="M49.17,18.7c0.28-0.38,0.62-0.76,0.99-1.12c0.34-0.33,0.73-0.63,1.16-0.89c0.43-0.26,0.91-0.47,1.43-0.63
		c1.27-0.4,2.89-0.26,4.67,0.41c1.18,0.44,2.53,1.21,4.01,2.3l1.04,0.75L50.8,31.93l10.3-5.12L47.02,42.14l14.55-6.87l22.08-24.01
		l-13.12,6.52l-4.94-3.58c-1.96-1.47-3.8-2.48-5.5-3.02c-2.74-0.87-5.11-0.95-6.83-0.6c-0.67,0.13-1.24,0.29-1.75,0.49
		c-0.55,0.22-1.05,0.46-1.32,0.64c-0.71,0.35-1.36,0.76-1.92,1.23c-0.55,0.46-1.04,0.95-1.45,1.47c-0.4,0.5-0.76,1.03-1.06,1.56
		c-0.29,0.52-0.53,1.01-0.73,1.48c-0.47,1.14-0.79,2.33-0.94,3.56L42.32,35.4l5.14-13.54C47.91,20.68,48.48,19.62,49.17,18.7z"/>
	<path d="M72.58,51.51c-0.22-0.55-0.46-1.05-0.64-1.32c-0.35-0.71-0.76-1.36-1.23-1.92c-0.46-0.55-0.95-1.04-1.47-1.45
		c-0.5-0.4-1.02-0.76-1.56-1.06c-0.52-0.29-1-0.53-1.49-0.73c-1.13-0.47-2.33-0.79-3.56-0.94l-14.38-1.77l13.54,5.14
		c1.18,0.45,2.23,1.02,3.15,1.71c0.38,0.29,0.76,0.62,1.12,1c0.33,0.34,0.64,0.73,0.89,1.16c0.26,0.43,0.47,0.91,0.63,1.43
		c0.4,1.27,0.26,2.89-0.41,4.67c-0.44,1.18-1.21,2.53-2.3,4.01l-0.75,1.04L51.71,50.8l5.12,10.3L41.5,47.02l6.87,14.55l24.01,22.08
		l-6.52-13.12l3.58-4.94c1.47-1.95,2.48-3.8,3.02-5.5c0.53-1.68,0.8-3.21,0.8-4.54c0-0.85-0.07-1.62-0.2-2.29
		C72.93,52.59,72.77,52.02,72.58,51.51z"/>
</g>
</svg>
