<?xml version="1.0" encoding="utf-8"?>
<!-- Generator: Adobe Illustrator 28.1.0, SVG Export Plug-In . SVG Version: 6.00 Build 0)  -->
<svg version="1.1" id="Layer_1" xmlns="http://www.w3.org/2000/svg" xmlns:xlink="http://www.w3.org/1999/xlink" x="0px" y="0px"
	 viewBox="0 0 731.28 250.22" style="enable-background:new 0 0 731.28 250.22;" xml:space="preserve">
<style type="text/css">
	.st0{fill:#FEE100;}
	.st1{fill:#EC2027;}
	.st2{fill:#FDE000;}
	.st3{display:none;}
	.st4{display:inline;fill:#EC2027;}
	.st5{display:inline;fill:#FEE100;}
	.st6{display:inline;fill:#FDDF03;}
	.st7{display:inline;}
</style>
<g>
	<g>
		<path class="st0" d="M345.04,5.48c13.73,0,27.46,0,41.19,0c0.4,0.44,0.92,0.22,1.38,0.23c11.7,0.24,23.39,0.69,35.08,1.35
			c11.6,0.66,23.18,1.52,34.75,2.6c10.82,1.01,21.63,2.19,32.4,3.59c12.66,1.65,25.27,3.59,37.84,5.84
			c20.91,3.74,41.61,8.34,62.03,14.2c22.14,6.35,43.81,13.97,64.46,24.26c12.16,6.06,23.8,12.96,34.33,21.6
			c8.01,6.57,15.15,13.94,20.31,23.02c5.88,10.35,8.06,21.31,5.2,33.04c-2.14,8.78-6.67,16.3-12.44,23.13
			c-7.23,8.58-15.91,15.5-25.22,21.65c-14.3,9.44-29.67,16.79-45.56,23.08c-29.47,11.67-59.99,19.66-91.02,25.79
			c-19.58,3.87-39.3,6.88-59.12,9.24c-15.48,1.85-30.99,3.29-46.54,4.34c-16.17,1.1-32.36,1.76-48.57,2.09
			c-25.48,0.51-50.94,0.04-76.38-1.35c-15.11-0.82-30.19-2.04-45.24-3.6c-11.14-1.16-22.25-2.51-33.34-4.1
			c-14.27-2.05-28.48-4.47-42.61-7.33c-24.47-4.95-48.6-11.14-72.19-19.38c-19.85-6.93-39.11-15.16-57.01-26.31
			c-10.79-6.72-20.82-14.37-29.08-24.13c-5.89-6.96-10.46-14.64-12.55-23.62c-0.44-1.91-0.76-3.85-1.13-5.77c0-2.31,0-4.63,0-6.94
			c0.07-0.24,0.17-0.47,0.2-0.71c0.58-6.7,2.75-12.89,6-18.72c4.87-8.71,11.56-15.86,19.13-22.25c12.08-10.2,25.67-18.01,39.88-24.8
			c20.02-9.57,40.93-16.76,62.25-22.79c19.16-5.42,38.58-9.74,58.17-13.31c13.29-2.43,26.64-4.49,40.04-6.22
			c10.82-1.4,21.66-2.58,32.53-3.59c11.73-1.09,23.48-1.96,35.24-2.61c11.56-0.64,23.13-1.1,34.7-1.31
			C344.45,5.7,344.83,5.87,345.04,5.48z M137.66,73.99c3.94-0.04,7.85,0.24,11.68,1.19c1.68,0.42,1.67,0.43,1.18,2.17
			c-0.54,1.89-0.45,2.07,1.39,2.75c0.15,0.06,0.31,0.11,0.47,0.15c1.68,0.4,2.69,1.51,3.34,3.05c0.62,1.48,1.39,2.92,1.87,4.45
			c0.81,2.59,2.52,3.97,5.12,4.41c0.81,0.14,1.62,0.33,2.44,0.44c3.54,0.5,7.1,0.31,10.65,0.38c2.29,0.04,4.56,0.29,6.62,1.35
			c1.68,0.86,3.42,1.14,5.27,1.11c1.73-0.03,3.48-0.14,5.19,0.21c5.6,1.14,11.26,1.79,16.93,2.38c4.53,0.47,9.03,1.05,13.31,2.74
			c0.85,0.34,1.74,0.6,2.66,0.42c1.78-0.35,3.45,0.02,5.1,0.6c9.03,3.17,18.03,6.46,27.27,9.01c0.55,0.15,0.82,0.44,1.04,0.92
			c0.75,1.66,1.46,3.33,2.3,4.94c0.91,1.73,0.87,3.34-0.02,5.07c-1.74,3.38-2.65,7.02-3.02,10.79c-0.52,5.15-2.28,9.8-5.54,13.82
			c-2.3,2.83-2.41,2.36-3.99-0.23c-3.59-5.89-7.12-11.82-10.59-17.77c-3.72-6.38-7.99-12.34-13.17-17.63
			c-4.2-4.29-10.64-5.09-15.81-2.11c-5.27,3.04-9.72,6.96-13.48,11.72c-5.08,6.42-10.19,12.8-15.24,19.24
			c-1.8,2.29-3.98,3.89-6.81,4.67c-2.63,0.72-5.25,1.49-7.81,2.39c-17.83,6.3-35.65,12.61-53.91,17.55
			c-2.35,0.64-4.64,1.76-7.07,1.72c-4.77-0.08-9.25-1.23-12.77-4.79c-0.58-0.59-1.21-1.14-2.01-1.42c-0.96-0.33-1.82,0.01-2.55,0.58
			c-0.74,0.58-0.39,1.36-0.12,2.05c2.37,6.05,5.88,11.34,10.61,15.82c1.79,1.69,3.8,2.35,6.22,2.01c3.61-0.5,7.24-0.71,10.87-0.11
			c1.33,0.22,2.57,0.57,3.58,1.53c0.5,0.48,0.55,0.84-0.03,1.3c-0.91,0.73-1.87,1.36-2.88,1.92c-1.77,0.98-3.63,1.79-5.3,2.95
			c-0.41,0.28-0.83,0.57-0.99,1.07c-0.16,0.5-0.12,1,0.25,1.39c0.41,0.43,0.75,0.01,1.1-0.16c0.74-0.36,1.47-0.74,2.21-1.13
			c2.89-1.5,5.72-3.2,8.95-3.88c2.93-0.62,5.5-1.99,7.99-3.54c0.66-0.41,1.13-0.41,1.79-0.11c3.83,1.74,7.7,3.4,11.53,5.17
			c3.29,1.52,6.49,1.39,9.62-0.37c2.6-1.46,5.34-2.6,8.09-3.73c1.12-0.46,2.3-0.71,3.5-0.69c1.49,0.02,2.16,1.04,1.64,2.41
			c-0.56,1.49-1.51,2.74-2.43,4.02c-1.09,1.51-2.18,3.02-2.72,4.83c-0.1,0.33-0.43,0.76-0.06,1.02c0.39,0.27,0.9,0.13,1.27-0.16
			c0.66-0.52,1.13-1.21,1.49-1.96c1.86-3.83,4.61-6.9,7.94-9.54c3.65-2.89,5.2-6.73,4.75-11.36c-0.09-0.9-0.25-1.8-0.41-2.69
			c-0.33-1.85-0.33-1.83,1.41-2.48c1.74-0.64,3.53-1.22,5.13-2.16c3.55-2.09,7.45-3.11,11.4-4.02c0.82-0.19,1.65-0.21,2.45,0.07
			c5.92,2.1,11.86,4.1,17.17,7.6c3.55,2.35,7.21,4.52,10.79,6.82c6.75,4.32,13.71,8.35,19.86,13.53c5.04,4.24,10.78,6.05,17.3,5.79
			c6.53-0.26,11.31-3.15,14.28-9.03c1.98-3.92,3.15-8.07,3.77-12.38c0.73-5.08,1.86-10.06,3.66-14.87
			c2.64-7.05,6.98-12.98,12.13-18.38c5.64-5.91,10.75-12.22,14.44-19.57c0.09-0.18,0.21-0.36,0.32-0.53
			c0.22-0.35,0.54-0.49,0.95-0.43c0.53,0.08,0.47,0.5,0.51,0.85c0.65,5.99,1.3,11.99,1.94,17.98c0.1,0.91,0.17,1.83-0.2,2.69
			c-1.1,2.62-0.75,5.17,0.33,7.69c1.11,2.58,2.05,5.22,2.77,7.94c1.04,3.95,1.75,7.98,2.87,11.91c0.65,2.26,1.96,4.3,2.15,6.7
			c0.41,5.06,2.58,9.43,5.34,13.56c1.81,2.7,4.41,4.03,7.67,4.02c0.54,0,1.08-0.02,1.61-0.01c4.42,0.04,8.86-0.39,13.25,0.35
			c3.36,0.57,6.66,0.31,9.97-0.36c1.06-0.21,1.91-0.72,2.68-1.45c0.39-0.37,0.41-0.62,0.01-1c-0.7-0.67-1.53-1.1-2.39-1.51
			c-4.57-2.19-9.22-4.11-14.39-4.23c-2.99-0.07-5.91-0.63-8.84-1.12c-1.08-0.18-2.14-0.47-2.7-1.53c-1.55-2.9-2.8-5.87-2.42-9.31
			c0.23-2.1,0.05-4.21-0.2-6.31c-0.71-5.9-1.37-11.81-2.12-17.71c-0.36-2.81-0.37-5.76-2.11-8.19c-2.16-3.02-2.57-6.35-2.2-9.91
			c0.2-1.97,0.32-3.95,0.46-5.93c0.21-2.88,0.24-5.79,0.66-8.64c1-6.93,0.61-13.75-1.28-20.49c-0.72-2.55-1.88-4.84-4.41-5.98
			c-2.26-1.02-3.68-2.71-4.65-4.9c-2.1-4.71-4.35-9.36-6.29-14.14c-3.72-9.16-9.45-16.67-17.55-22.41
			c-5.62-3.99-11.8-4.28-17.59-0.54c-3.08,1.99-5.62,4.61-8.04,7.33c-1.62,1.83-2.39,4.03-2.18,6.52c0.04,0.49,0.05,0.98-0.11,1.47
			c-0.9,2.62-0.57,5.2,0.67,7.57c1.71,3.28,2.19,6.62,1.27,10.19c-0.1,0.39-0.15,0.75,0.23,0.99c2.82,1.73,4.47,4.46,6.19,7.15
			c0.77,1.2,1.82,2.04,3.36,1.98c0.69-0.03,0.97,0.41,1.06,0.98c0.09,0.58-0.12,1.08-0.69,1.32c-0.34,0.14-0.72,0.2-1.08,0.23
			c-5.02,0.5-10.05,0.85-15.09,1.01c-0.91,0.03-1.83,0.01-2.72-0.14c-3.3-0.54-6.59-1.17-9.89-1.73
			c-5.45-0.91-10.86-2.21-16.46-1.87c-1.6,0.1-3.03-0.54-4.04-1.81c-1.19-1.49-2.71-2.01-4.56-2.02c-4.22-0.02-8.43-0.16-12.64-0.53
			c-2.14-0.19-4.3-0.54-6.43-0.2c-2.97,0.47-5.82,0-8.7-0.64c-4.75-1.06-9.48-2.31-14.41-2.29c-1.46,0.01-2.72-0.69-3.81-1.61
			c-1.89-1.6-3.77-3.22-5.63-4.87c-1.19-1.06-1.86-4.02-1.15-5.38c0.35-0.66,0.14-0.97-0.33-1.33c-1.5-1.12-3.16-1.94-4.9-2.61
			c-1.27-0.49-2.51-0.38-3.68,0.36c-0.93,0.58-1.94,0.88-3.04,0.98c-2.93,0.24-5.87,0.09-8.8,0.12c-5.54,0.06-11.08,0.28-16.58-0.68
			c-0.5-0.09-0.86,0.08-1.2,0.45c-1.58,1.74-1.63,2.12-0.43,4.11c0.36,0.6,0.78,1.17,1.09,1.8c0.34,0.69,0.81,0.91,1.57,0.88
			C134.51,73.95,136.09,73.99,137.66,73.99z M420.2,117.52c0.43,0.48,0.69,0.75,0.91,1.03c0.21,0.26,0.43,0.52,0.57,0.81
			c3.78,7.45,8.99,13.84,14.77,19.79c8.57,8.82,13.48,19.35,15.13,31.48c0.76,5.61,2.16,11.02,5.24,15.86
			c1.97,3.09,4.66,5.29,8.24,6.14c8.06,1.9,15.42,0.31,21.93-4.84c2.66-2.1,5.21-4.31,8.1-6.12c6.16-3.86,12.31-7.75,18.37-11.76
			c6.31-4.17,13.06-7.4,20.2-9.86c1.56-0.54,3.08-0.64,4.73-0.3c5.54,1.12,10.44,3.83,15.54,6.04c1.87,0.81,1.79,0.84,1.42,2.86
			c-1.07,5.72,0.14,10.66,5.05,14.29c1.74,1.28,3.27,2.78,4.58,4.5c1.06,1.39,1.84,2.93,2.66,4.46c0.4,0.76,0.81,1.55,1.65,1.95
			c0.61,0.29,0.91,0.11,1.02-0.56c0.1-0.64-0.22-1.12-0.52-1.61c-1.46-2.39-3.01-4.74-4.4-7.18c-0.93-1.65,0-2.92,1.92-2.74
			c1.11,0.1,2.2,0.32,3.24,0.75c2.74,1.15,5.47,2.32,8.08,3.75c3.07,1.68,6.18,1.78,9.39,0.3c3.9-1.79,7.84-3.49,11.78-5.2
			c0.41-0.18,0.83-0.54,1.37-0.13c2.97,2.29,6.46,3.41,10.02,4.41c3.28,0.93,6.19,2.71,9.19,4.29c0.43,0.23,1.04,0.73,1.43,0.23
			c0.36-0.48,0.18-1.19-0.14-1.76c-0.25-0.45-0.64-0.76-1.08-1c-1.01-0.55-2.03-1.1-3.06-1.64c-1.47-0.76-2.93-1.52-4.26-2.52
			c-1.34-1-1.33-0.99,0.04-2.04c0.77-0.59,1.61-0.99,2.57-1.16c3.2-0.55,6.41-0.71,9.62-0.09c3.53,0.69,6.39-0.19,8.93-2.89
			c4.11-4.37,7.39-9.19,9.5-14.8c0.31-0.83,0.45-1.6-0.25-2.29c-0.68-0.67-1.51-0.56-2.33-0.35c-0.57,0.15-1.04,0.49-1.47,0.9
			c-1.26,1.22-2.7,2.19-4.21,3.04c-3.91,2.21-8.03,2.94-12.42,1.66c-4.56-1.33-9.14-2.58-13.68-3.95
			c-11.07-3.34-21.93-7.29-32.92-10.87c-7.41-2.42-14.64-5.42-22.27-7.15c-0.55-0.12-0.84-0.48-1.15-0.87
			c-5.32-6.65-10.72-13.22-15.93-19.96c-4.27-5.52-9.09-10.34-15.17-13.87c-5.09-2.95-11.67-2.17-15.71,2.07
			c-4.28,4.5-8.16,9.33-11.5,14.57c-4.51,7.07-8.56,14.42-12.81,21.64c-0.96,1.63-1.66,1.66-2.9,0.24
			c-3.63-4.16-5.5-9.04-6.17-14.47c-0.5-4.03-1.36-7.97-3.33-11.59c-0.66-1.21-0.6-2.46-0.02-3.69c0.87-1.87,1.78-3.73,2.63-5.6
			c0.24-0.54,0.58-0.82,1.16-0.98c8.99-2.37,17.67-5.69,26.44-8.76c1.6-0.56,3.24-1.07,4.96-0.94c1.48,0.12,2.88-0.11,4.26-0.58
			c3.1-1.05,6.31-1.65,9.55-2.07c4.88-0.63,9.75-1.24,14.63-1.9c3.97-0.54,7.91-1.32,11.95-1.12c1.11,0.05,2.19-0.28,3.22-0.8
			c1.37-0.69,2.81-1.17,4.34-1.38c2.97-0.42,5.95-0.18,8.92-0.28c2.82-0.1,5.6-0.32,8.33-1.12c1.67-0.49,2.81-1.47,3.45-3.09
			c0.71-1.8,1.46-3.59,2.24-5.37c0.7-1.58,1.82-2.74,3.54-3.22c2.19-0.61,2.32-0.86,1.59-3.02c-0.45-1.33-0.2-1.74,1.22-2
			c4.57-0.82,9.16-1.53,13.8-1.13c2.83,0.24,4.68-0.55,5.8-3.27c0.42-1.03,0.52-1.73-0.14-2.56c-0.67-0.84-1.25-1.7-2.63-1.34
			c-1.15,0.3-2.36,0.4-3.56,0.46c-6.82,0.33-13.64,0.15-20.46,0.13c-1.3,0-2.52-0.32-3.64-1.05c-0.86-0.56-1.85-0.8-2.85-0.57
			c-2.25,0.51-4.26,1.55-6.05,3.01c-0.34,0.28-0.51,0.53-0.29,1.05c0.87,2.02,0.15,4.85-1.66,6.19c-1.57,1.16-3,2.46-4.45,3.75
			c-1.4,1.25-3.05,2.07-4.93,2.07c-4.26-0.01-8.35,1.04-12.46,1.95c-3.2,0.7-6.39,1.4-9.69,1.06c-1.4-0.14-2.77-0.24-4.19-0.16
			c-5.24,0.29-10.44,1.16-15.72,0.76c-1.46-0.11-2.69,0.43-3.59,1.59c-1.21,1.58-2.87,2.26-4.76,2.24
			c-7.34-0.1-14.4,1.85-21.58,2.92c-3.1,0.46-6.19,1.22-9.35,0.75c-3.9-0.58-7.82-0.71-11.75-0.72c-0.79,0-1.57-0.11-2.31-0.37
			c-0.54-0.19-0.95-0.6-0.83-1.22c0.12-0.62,0.43-1.29,1.18-1.21c1.74,0.19,2.7-0.87,3.49-2.12c1.64-2.6,3.36-5.11,5.84-7
			c0.44-0.33,0.57-0.71,0.43-1.29c-0.86-3.67-0.23-7.13,1.54-10.42c0.5-0.93,0.78-1.91,0.71-2.97c-0.15-2.18-0.25-4.37-0.46-6.55
			c-0.15-1.6-0.33-3.22-1.38-4.56c-2.38-3.04-4.98-5.88-8.25-7.98c-5.34-3.43-10.92-4.4-16.52-0.75
			c-7.81,5.1-13.98,11.68-17.74,20.34c-2.66,6.13-5.43,12.22-8.15,18.32c-0.59,1.32-1.38,2.44-2.77,3.03
			c-2.72,1.14-4.47,3.19-5.48,5.91c-1.65,4.44-2.19,9.06-2,13.76c0.31,7.6,1.09,15.16,1.65,22.74c0.26,3.48-0.18,6.75-2.48,9.57
			c-0.85,1.05-1.16,2.35-1.34,3.68c-0.57,4.34-1.19,8.67-1.71,13.01c-0.61,5.08-1.45,10.14-1.34,15.29c0.06,2.53-0.55,5-1.37,7.39
			c-0.67,1.97-1.99,3.23-4.09,3.48c-3.57,0.43-7.14,0.82-10.71,1.2c-5.04,0.55-9.49,2.76-13.93,4.95c-1.02,0.5-0.97,1.11-0.15,1.91
			c0.52,0.5,1.09,0.85,1.81,1c2.1,0.45,4.21,0.79,6.38,0.84c2.17,0.05,4.27-0.44,6.41-0.61c4.3-0.33,8.6-0.1,12.9-0.14
			c2.56-0.02,4.83-0.8,6.43-2.89c2.04-2.66,3.74-5.53,4.91-8.7c0.77-2.08,0.87-4.28,1.45-6.39c0.96-3.5,2.09-6.96,2.98-10.47
			c1.41-5.6,2.62-11.25,4.97-16.57c0.9-2.03,0.85-4.19,0.09-6.29c-0.39-1.08-0.48-2.16-0.36-3.29c0.49-4.43,0.94-8.87,1.47-13.3
			C419.48,121.62,419.85,119.69,420.2,117.52z M343.53,43.43c-0.72,2.07-1.41,3.91-2,5.79c-0.31,1-0.78,1.5-1.91,1.43
			c-1.48-0.09-2.97,0.01-4.46,0c-0.57,0-1.15,0.02-1.4,0.57c-0.29,0.64,0.42,0.79,0.76,1.07c1.15,0.95,2.29,1.91,3.52,2.73
			c0.96,0.65,1.15,1.4,0.82,2.43c-0.46,1.45-0.91,2.91-1.33,4.37c-0.12,0.42-0.33,0.97,0.1,1.27c0.44,0.31,0.86-0.15,1.22-0.38
			c1.38-0.9,2.74-1.84,4.1-2.78c0.71-0.49,1.33-0.4,2.03,0.11c1.36,1,2.77,1.94,4.19,2.86c0.81,0.52,1.22,0.25,1.08-0.74
			c-0.19-1.28-0.74-2.44-1.13-3.65c-0.75-2.29-0.65-2.54,1.26-4.01c1.05-0.8,2.08-1.62,3.09-2.47c0.28-0.23,0.55-0.6,0.44-0.97
			c-0.14-0.45-0.63-0.29-0.97-0.31c-1.4-0.07-2.81-0.09-4.21-0.14c-2.48-0.07-1.84,0.29-2.71-1.96
			C345.33,46.96,345.03,45.08,343.53,43.43z M377.25,50.73c0.36,0.9,0.94,1.31,1.48,1.74c1.25,1.01,2.51,2,3.79,2.98
			c0.61,0.47,0.73,0.95,0.46,1.69c-0.56,1.51-0.99,3.06-1.5,4.58c-0.17,0.52-0.21,0.99,0.25,1.35c0.46,0.36,0.76-0.11,1.08-0.32
			c1.31-0.87,2.65-1.69,3.87-2.67c0.88-0.7,1.54-0.62,2.38,0.03c1.2,0.94,2.47,1.79,3.72,2.66c0.37,0.26,0.81,0.51,1.25,0.19
			c0.44-0.32,0.17-0.77,0.07-1.14c-0.44-1.63-0.89-3.26-1.38-4.87c-0.21-0.69-0.08-1.14,0.51-1.59c1.42-1.07,2.78-2.2,4.16-3.32
			c0.3-0.24,0.74-0.44,0.51-0.99c-0.21-0.5-0.62-0.46-1.04-0.45c-1.69,0-3.39-0.06-5.08,0.02c-0.92,0.04-1.31-0.29-1.56-1.15
			c-0.45-1.54-1-3.05-1.53-4.57c-0.15-0.43-0.31-0.93-0.85-0.95c-0.58-0.03-0.69,0.53-0.84,0.93c-0.57,1.54-1.11,3.1-1.66,4.65
			c-0.31,0.87-0.86,1.26-1.87,1.22C381.46,50.67,379.44,50.73,377.25,50.73z M359.48,59.67c1.77-1.23,3.4-2.27,4.91-3.46
			c1.01-0.79,1.76-0.84,2.79-0.03c1.58,1.23,3.3,2.28,5.04,3.46c0.16-0.6,0.07-0.99-0.04-1.38c-0.49-1.74-0.94-3.5-1.49-5.23
			c-0.26-0.82-0.02-1.29,0.64-1.76c1.37-0.99,2.69-2.06,4.02-3.1c0.33-0.25,0.7-0.5,0.52-1.01c-0.17-0.48-0.6-0.35-0.95-0.37
			c-1.36-0.06-2.73-0.1-4.09-0.15c-2.25-0.08-2.24-0.08-3.02-2.28c-0.44-1.24-0.86-2.49-1.32-3.72c-0.13-0.33-0.27-0.81-0.67-0.82
			c-0.41-0.02-0.53,0.47-0.66,0.79c-0.4,1.04-0.78,2.08-1.12,3.14c-0.93,2.9-0.92,2.91-3.87,2.93c-0.87,0.01-1.74-0.01-2.6,0.02
			c-0.41,0.01-0.83,0.05-1.22,0.16c-0.3,0.08-0.7,0.14-0.77,0.51c-0.06,0.33,0.3,0.46,0.52,0.63c0.88,0.69,1.76,1.37,2.65,2.05
			c2.61,2.01,2.61,2.01,1.58,5.17C359.88,56.57,359.3,57.91,359.48,59.67z"/>
	</g>
	<g>
		<path class="st1" d="M137.66,73.99c-1.57,0-3.14-0.04-4.71,0.02c-0.77,0.03-1.24-0.19-1.57-0.88c-0.31-0.63-0.73-1.2-1.09-1.8
			c-1.2-1.99-1.15-2.37,0.43-4.11c0.34-0.37,0.71-0.54,1.2-0.45c5.5,0.96,11.04,0.74,16.58,0.68c2.93-0.03,5.87,0.12,8.8-0.12
			c1.09-0.09,2.11-0.39,3.04-0.98c1.17-0.73,2.41-0.85,3.68-0.36c1.74,0.67,3.4,1.49,4.9,2.61c0.47,0.35,0.68,0.67,0.33,1.33
			c-0.71,1.36-0.04,4.32,1.15,5.38c1.85,1.65,3.73,3.27,5.63,4.87c1.09,0.93,2.34,1.62,3.81,1.61c4.93-0.02,9.66,1.23,14.41,2.29
			c2.88,0.64,5.73,1.11,8.7,0.64c2.13-0.34,4.3,0.01,6.43,0.2c4.21,0.37,8.42,0.51,12.64,0.53c1.86,0.01,3.38,0.53,4.56,2.02
			c1.02,1.27,2.45,1.91,4.04,1.81c5.6-0.34,11.01,0.96,16.46,1.87c3.3,0.55,6.59,1.18,9.89,1.73c0.89,0.15,1.82,0.16,2.72,0.14
			c5.04-0.16,10.07-0.51,15.09-1.01c0.37-0.04,0.75-0.09,1.08-0.23c0.57-0.24,0.78-0.74,0.69-1.32c-0.09-0.57-0.38-1.01-1.06-0.98
			c-1.54,0.06-2.59-0.78-3.36-1.98c-1.72-2.69-3.37-5.42-6.19-7.15c-0.39-0.24-0.33-0.61-0.23-0.99c0.92-3.56,0.44-6.91-1.27-10.19
			c-1.24-2.37-1.57-4.95-0.67-7.57c0.17-0.49,0.15-0.98,0.11-1.47c-0.21-2.49,0.56-4.69,2.18-6.52c2.42-2.72,4.96-5.34,8.04-7.33
			c5.79-3.74,11.97-3.45,17.59,0.54c8.09,5.74,13.82,13.25,17.55,22.41c1.94,4.78,4.19,9.43,6.29,14.14
			c0.97,2.19,2.39,3.88,4.65,4.9c2.53,1.14,3.69,3.42,4.41,5.98c1.89,6.74,2.28,13.55,1.28,20.49c-0.41,2.85-0.44,5.76-0.66,8.64
			c-0.15,1.98-0.26,3.96-0.46,5.93c-0.37,3.56,0.04,6.9,2.2,9.91c1.74,2.43,1.76,5.38,2.11,8.19c0.75,5.9,1.41,11.81,2.12,17.71
			c0.25,2.1,0.43,4.21,0.2,6.31c-0.38,3.43,0.87,6.4,2.42,9.31c0.57,1.05,1.62,1.35,2.7,1.53c2.93,0.5,5.85,1.05,8.84,1.12
			c5.17,0.12,9.82,2.04,14.39,4.23c0.86,0.41,1.69,0.84,2.39,1.51c0.4,0.39,0.38,0.63-0.01,1c-0.77,0.73-1.62,1.24-2.68,1.45
			c-3.31,0.67-6.6,0.93-9.97,0.36c-4.39-0.74-8.83-0.31-13.25-0.35c-0.54,0-1.08,0.01-1.61,0.01c-3.27,0.01-5.86-1.32-7.67-4.02
			c-2.76-4.12-4.93-8.5-5.34-13.56c-0.19-2.4-1.5-4.44-2.15-6.7c-1.13-3.93-1.83-7.96-2.87-11.91c-0.72-2.72-1.66-5.36-2.77-7.94
			c-1.08-2.51-1.43-5.07-0.33-7.69c0.36-0.87,0.29-1.79,0.2-2.69c-0.64-5.99-1.29-11.99-1.94-17.98c-0.04-0.36,0.02-0.78-0.51-0.85
			c-0.41-0.06-0.73,0.08-0.95,0.43c-0.11,0.17-0.23,0.35-0.32,0.53c-3.69,7.35-8.8,13.66-14.44,19.57
			c-5.15,5.4-9.49,11.34-12.13,18.38c-1.81,4.81-2.93,9.79-3.66,14.87c-0.62,4.31-1.79,8.46-3.77,12.38
			c-2.97,5.88-7.74,8.77-14.28,9.03c-6.52,0.26-12.25-1.54-17.3-5.79c-6.15-5.18-13.11-9.21-19.86-13.53
			c-3.58-2.29-7.24-4.47-10.79-6.82c-5.3-3.5-11.25-5.51-17.17-7.6c-0.8-0.28-1.63-0.26-2.45-0.07c-3.95,0.91-7.85,1.94-11.4,4.02
			c-1.6,0.94-3.39,1.52-5.13,2.16c-1.74,0.64-1.74,0.63-1.41,2.48c0.16,0.89,0.33,1.79,0.41,2.69c0.44,4.63-1.11,8.48-4.75,11.36
			c-3.33,2.63-6.07,5.7-7.94,9.54c-0.36,0.75-0.83,1.44-1.49,1.96c-0.37,0.29-0.88,0.43-1.27,0.16c-0.37-0.26-0.04-0.68,0.06-1.02
			c0.54-1.82,1.63-3.33,2.72-4.83c0.92-1.27,1.87-2.53,2.43-4.02c0.52-1.37-0.15-2.39-1.64-2.41c-1.2-0.02-2.38,0.23-3.5,0.69
			c-2.75,1.13-5.49,2.27-8.09,3.73c-3.13,1.76-6.33,1.89-9.62,0.37c-3.82-1.76-7.69-3.43-11.53-5.17c-0.66-0.3-1.14-0.3-1.79,0.11
			c-2.49,1.55-5.06,2.92-7.99,3.54c-3.23,0.68-6.06,2.38-8.95,3.88c-0.73,0.38-1.47,0.76-2.21,1.13c-0.34,0.17-0.69,0.59-1.1,0.16
			c-0.38-0.39-0.41-0.89-0.25-1.39c0.16-0.5,0.57-0.79,0.99-1.07c1.67-1.15,3.54-1.96,5.3-2.95c1.01-0.56,1.98-1.19,2.88-1.92
			c0.58-0.46,0.52-0.82,0.03-1.3c-1.01-0.97-2.25-1.31-3.58-1.53c-3.63-0.61-7.25-0.39-10.87,0.11c-2.42,0.34-4.44-0.32-6.22-2.01
			c-4.74-4.48-8.24-9.76-10.61-15.82c-0.27-0.69-0.62-1.46,0.12-2.05c0.73-0.57,1.59-0.91,2.55-0.58c0.8,0.28,1.43,0.83,2.01,1.42
			c3.52,3.56,8.01,4.7,12.77,4.79c2.43,0.04,4.73-1.09,7.07-1.72c18.27-4.95,36.09-11.26,53.91-17.55c2.57-0.91,5.19-1.68,7.81-2.39
			c2.83-0.77,5.02-2.38,6.81-4.67c5.05-6.44,10.17-12.82,15.24-19.24c3.76-4.75,8.21-8.68,13.48-11.72
			c5.17-2.98,11.61-2.18,15.81,2.11c5.18,5.29,9.45,11.24,13.17,17.63c3.47,5.96,7,11.89,10.59,17.77c1.58,2.59,1.69,3.05,3.99,0.23
			c3.26-4.02,5.03-8.68,5.54-13.82c0.38-3.77,1.28-7.41,3.02-10.79c0.89-1.73,0.93-3.34,0.02-5.07c-0.84-1.61-1.56-3.28-2.3-4.94
			c-0.22-0.48-0.49-0.77-1.04-0.92c-9.24-2.54-18.23-5.84-27.27-9.01c-1.65-0.58-3.33-0.95-5.1-0.6c-0.92,0.18-1.81-0.08-2.66-0.42
			c-4.28-1.69-8.78-2.27-13.31-2.74c-5.67-0.59-11.33-1.24-16.93-2.38c-1.71-0.35-3.46-0.24-5.19-0.21
			c-1.84,0.04-3.59-0.24-5.27-1.11c-2.06-1.06-4.33-1.3-6.62-1.35c-3.55-0.07-7.12,0.12-10.65-0.38c-0.82-0.12-1.62-0.31-2.44-0.44
			c-2.6-0.43-4.32-1.82-5.12-4.41c-0.48-1.53-1.24-2.96-1.87-4.45c-0.64-1.53-1.66-2.65-3.34-3.05c-0.16-0.04-0.32-0.09-0.47-0.15
			c-1.85-0.68-1.94-0.86-1.39-2.75c0.5-1.74,0.5-1.76-1.18-2.17C145.5,74.23,141.59,73.95,137.66,73.99z M138.15,175.32
			c2.6-0.55,5.34-1.1,7.92-2.27c0.5-0.23,0.88-0.6,1.16-1.09c0.59-1.03,0.42-1.42-0.76-1.49c-3.53-0.22-6.81,0.59-9.79,2.51
			c-0.49,0.32-1.41,0.53-1.26,1.15c0.15,0.64,1.02,0.89,1.7,1.08C137.4,175.29,137.7,175.28,138.15,175.32z M215.66,142.55
			c1.64,0.07,1.66,0.06,1.14-1.21c-0.4-0.99-0.83-1.98-1.31-2.94c-0.62-1.23-1.45-2.3-2.52-3.18c-0.34-0.28-0.65-0.55-1,0
			c-0.68,1.08-1.46,2.11-2.05,3.24c-0.28,0.53-0.58,1.38,0.11,1.81C211.85,141.4,213.71,142.51,215.66,142.55z"/>
		<path class="st1" d="M420.2,117.52c-0.35,2.18-0.72,4.11-0.95,6.05c-0.52,4.43-0.97,8.86-1.47,13.3
			c-0.13,1.13-0.04,2.22,0.36,3.29c0.77,2.1,0.81,4.26-0.09,6.29c-2.35,5.33-3.55,10.97-4.97,16.57c-0.89,3.52-2.02,6.97-2.98,10.47
			c-0.58,2.1-0.68,4.31-1.45,6.39c-1.17,3.17-2.87,6.04-4.91,8.7c-1.6,2.09-3.87,2.87-6.43,2.89c-4.3,0.04-8.6-0.19-12.9,0.14
			c-2.14,0.17-4.24,0.66-6.41,0.61c-2.16-0.05-4.27-0.4-6.38-0.84c-0.72-0.15-1.29-0.5-1.81-1c-0.83-0.8-0.87-1.4,0.15-1.91
			c4.44-2.2,8.89-4.41,13.93-4.95c3.57-0.39,7.15-0.77,10.71-1.2c2.1-0.25,3.42-1.51,4.09-3.48c0.82-2.4,1.43-4.86,1.37-7.39
			c-0.12-5.15,0.73-10.21,1.34-15.29c0.52-4.34,1.14-8.68,1.71-13.01c0.17-1.33,0.48-2.64,1.34-3.68c2.31-2.82,2.74-6.09,2.48-9.57
			c-0.56-7.58-1.34-15.14-1.65-22.74c-0.19-4.7,0.35-9.32,2-13.76c1.01-2.72,2.76-4.77,5.48-5.91c1.39-0.58,2.18-1.71,2.77-3.03
			c2.72-6.11,5.48-12.19,8.15-18.32c3.77-8.67,9.94-15.25,17.74-20.34c5.6-3.65,11.17-2.68,16.52,0.75c3.27,2.1,5.86,4.95,8.25,7.98
			c1.05,1.34,1.23,2.96,1.38,4.56c0.2,2.18,0.31,4.37,0.46,6.55c0.07,1.06-0.21,2.04-0.71,2.97c-1.76,3.29-2.39,6.75-1.54,10.42
			c0.13,0.58,0.01,0.96-0.43,1.29c-2.49,1.88-4.2,4.4-5.84,7c-0.79,1.25-1.75,2.31-3.49,2.12c-0.75-0.08-1.06,0.58-1.18,1.21
			c-0.12,0.62,0.29,1.04,0.83,1.22c0.74,0.26,1.52,0.37,2.31,0.37c3.93,0.01,7.85,0.14,11.75,0.72c3.16,0.47,6.25-0.29,9.35-0.75
			c7.18-1.07,14.24-3.02,21.58-2.92c1.89,0.03,3.55-0.66,4.76-2.24c0.89-1.16,2.13-1.7,3.59-1.59c5.27,0.4,10.48-0.47,15.72-0.76
			c1.42-0.08,2.79,0.02,4.19,0.16c3.3,0.34,6.49-0.36,9.69-1.06c4.11-0.9,8.2-1.95,12.46-1.95c1.88,0,3.53-0.81,4.93-2.07
			c1.45-1.29,2.88-2.59,4.45-3.75c1.81-1.34,2.53-4.17,1.66-6.19c-0.22-0.51-0.05-0.76,0.29-1.05c1.79-1.46,3.79-2.5,6.05-3.01
			c1-0.23,1.99,0.01,2.85,0.57c1.12,0.73,2.34,1.04,3.64,1.05c6.82,0.02,13.65,0.2,20.46-0.13c1.19-0.06,2.41-0.16,3.56-0.46
			c1.38-0.37,1.95,0.5,2.63,1.34c0.66,0.83,0.56,1.53,0.14,2.56c-1.12,2.72-2.97,3.52-5.8,3.27c-4.64-0.4-9.24,0.31-13.8,1.13
			c-1.42,0.26-1.67,0.67-1.22,2c0.73,2.16,0.6,2.41-1.59,3.02c-1.72,0.48-2.85,1.64-3.54,3.22c-0.78,1.77-1.53,3.56-2.24,5.37
			c-0.64,1.63-1.78,2.6-3.45,3.09c-2.72,0.8-5.51,1.02-8.33,1.12c-2.97,0.1-5.95-0.14-8.92,0.28c-1.54,0.22-2.98,0.69-4.34,1.38
			c-1.02,0.52-2.1,0.85-3.22,0.8c-4.04-0.2-7.98,0.58-11.95,1.12c-4.87,0.66-9.75,1.27-14.63,1.9c-3.24,0.42-6.44,1.02-9.55,2.07
			c-1.38,0.47-2.78,0.7-4.26,0.58c-1.72-0.14-3.35,0.37-4.96,0.94c-8.76,3.07-17.44,6.39-26.44,8.76c-0.58,0.15-0.91,0.44-1.16,0.98
			c-0.85,1.88-1.76,3.73-2.63,5.6c-0.58,1.23-0.64,2.48,0.02,3.69c1.97,3.62,2.83,7.57,3.33,11.59c0.67,5.43,2.54,10.31,6.17,14.47
			c1.24,1.42,1.95,1.39,2.9-0.24c4.25-7.22,8.3-14.57,12.81-21.64c3.35-5.24,7.22-10.07,11.5-14.57c4.03-4.24,10.62-5.02,15.71-2.07
			c6.08,3.53,10.9,8.35,15.17,13.87c5.2,6.74,10.61,13.31,15.93,19.96c0.31,0.39,0.6,0.74,1.15,0.87
			c7.63,1.73,14.86,4.74,22.27,7.15c10.99,3.58,21.85,7.53,32.92,10.87c4.54,1.37,9.12,2.63,13.68,3.95
			c4.39,1.28,8.51,0.54,12.42-1.66c1.51-0.85,2.95-1.82,4.21-3.04c0.42-0.41,0.89-0.75,1.47-0.9c0.82-0.21,1.64-0.32,2.33,0.35
			c0.7,0.69,0.57,1.46,0.25,2.29c-2.12,5.61-5.39,10.44-9.5,14.8c-2.54,2.7-5.4,3.57-8.93,2.89c-3.2-0.62-6.42-0.46-9.62,0.09
			c-0.96,0.16-1.8,0.57-2.57,1.16c-1.36,1.05-1.37,1.04-0.04,2.04c1.33,1,2.79,1.76,4.26,2.52c1.03,0.53,2.04,1.08,3.06,1.64
			c0.44,0.24,0.82,0.55,1.08,1c0.32,0.57,0.51,1.29,0.14,1.76c-0.38,0.5-1,0-1.43-0.23c-2.99-1.58-5.91-3.36-9.19-4.29
			c-3.56-1.01-7.05-2.12-10.02-4.41c-0.54-0.42-0.96-0.05-1.37,0.13c-3.94,1.71-7.88,3.41-11.78,5.2c-3.21,1.48-6.32,1.38-9.39-0.3
			c-2.61-1.43-5.34-2.6-8.08-3.75c-1.05-0.44-2.14-0.65-3.24-0.75c-1.92-0.17-2.85,1.1-1.92,2.74c1.38,2.44,2.93,4.78,4.4,7.18
			c0.3,0.49,0.62,0.97,0.52,1.61c-0.11,0.66-0.41,0.85-1.02,0.56c-0.85-0.4-1.25-1.19-1.65-1.95c-0.82-1.53-1.6-3.08-2.66-4.46
			c-1.31-1.72-2.84-3.22-4.58-4.5c-4.91-3.63-6.12-8.57-5.05-14.29c0.38-2.02,0.46-2.05-1.42-2.86c-5.1-2.21-10-4.92-15.54-6.04
			c-1.66-0.33-3.17-0.23-4.73,0.3c-7.14,2.46-13.89,5.68-20.2,9.86c-6.06,4.01-12.21,7.9-18.37,11.76c-2.89,1.81-5.44,4.02-8.1,6.12
			c-6.51,5.15-13.87,6.74-21.93,4.84c-3.58-0.84-6.28-3.05-8.24-6.14c-3.08-4.84-4.48-10.25-5.24-15.86
			c-1.65-12.12-6.56-22.66-15.13-31.48c-5.78-5.95-10.99-12.34-14.77-19.79c-0.15-0.29-0.37-0.55-0.57-0.81
			C420.89,118.26,420.63,118,420.2,117.52z M586.37,170.43c-0.37,0-0.74-0.03-1.11,0.01c-0.43,0.05-0.96-0.04-1.15,0.51
			c-0.16,0.47,0.07,0.89,0.34,1.26c0.37,0.53,0.95,0.8,1.53,1c2.29,0.8,4.63,1.44,7,1.99c0.86,0.2,1.71,0.13,2.5-0.36
			c1.01-0.63,1.04-0.86,0.07-1.53C592.78,171.41,589.67,170.61,586.37,170.43z M515.82,142.75c1.91-0.34,3.82-1.21,5.62-2.31
			c0.42-0.26,0.82-0.75,0.56-1.37c-0.59-1.42-1.3-2.77-2.51-3.78c-0.29-0.24-0.55-0.48-0.94-0.08c-1.85,1.9-3.21,4.07-3.77,6.7
			C514.62,142.65,515.04,142.77,515.82,142.75z"/>
		<path class="st1" d="M343.53,43.43c1.5,1.65,1.8,3.53,2.46,5.24c0.87,2.25,0.23,1.88,2.71,1.96c1.4,0.04,2.81,0.07,4.21,0.14
			c0.34,0.02,0.83-0.15,0.97,0.31c0.11,0.37-0.16,0.74-0.44,0.97c-1.01,0.85-2.04,1.67-3.09,2.47c-1.92,1.47-2.02,1.72-1.26,4.01
			c0.4,1.21,0.95,2.38,1.13,3.65c0.14,0.99-0.27,1.26-1.08,0.74c-1.42-0.91-2.83-1.86-4.19-2.86c-0.7-0.51-1.31-0.6-2.03-0.11
			c-1.36,0.93-2.71,1.88-4.1,2.78c-0.35,0.23-0.78,0.69-1.22,0.38c-0.42-0.3-0.22-0.85-0.1-1.27c0.42-1.47,0.87-2.92,1.33-4.37
			c0.33-1.02,0.14-1.78-0.82-2.43c-1.23-0.83-2.38-1.78-3.52-2.73c-0.33-0.28-1.05-0.43-0.76-1.07c0.25-0.55,0.83-0.57,1.4-0.57
			c1.49,0.01,2.98-0.09,4.46,0c1.13,0.07,1.6-0.43,1.91-1.43C342.12,47.34,342.81,45.5,343.53,43.43z"/>
		<path class="st1" d="M377.25,50.73c2.19,0,4.21-0.06,6.22,0.03c1,0.04,1.55-0.35,1.87-1.22c0.56-1.55,1.09-3.11,1.66-4.65
			c0.15-0.41,0.26-0.96,0.84-0.93c0.54,0.02,0.7,0.52,0.85,0.95c0.53,1.52,1.08,3.03,1.53,4.57c0.25,0.85,0.64,1.19,1.56,1.15
			c1.69-0.08,3.38-0.02,5.08-0.02c0.41,0,0.83-0.04,1.04,0.45c0.23,0.55-0.21,0.74-0.51,0.99c-1.38,1.12-2.74,2.25-4.16,3.32
			c-0.59,0.45-0.72,0.9-0.51,1.59c0.49,1.61,0.94,3.24,1.38,4.87c0.1,0.37,0.37,0.82-0.07,1.14c-0.45,0.32-0.88,0.07-1.25-0.19
			c-1.25-0.87-2.52-1.72-3.72-2.66c-0.83-0.65-1.49-0.73-2.38-0.03c-1.22,0.97-2.56,1.8-3.87,2.67c-0.31,0.21-0.62,0.67-1.08,0.32
			c-0.46-0.36-0.42-0.83-0.25-1.35c0.51-1.52,0.94-3.07,1.5-4.58c0.27-0.74,0.16-1.23-0.46-1.69c-1.28-0.97-2.54-1.97-3.79-2.98
			C378.19,52.03,377.61,51.62,377.25,50.73z"/>
		<path class="st1" d="M359.48,59.67c-0.19-1.77,0.4-3.1,0.84-4.47c1.03-3.16,1.03-3.16-1.58-5.17c-0.88-0.68-1.77-1.36-2.65-2.05
			c-0.22-0.17-0.58-0.3-0.52-0.63c0.07-0.37,0.48-0.43,0.77-0.51c0.39-0.11,0.81-0.15,1.22-0.16c0.87-0.02,1.74-0.01,2.6-0.02
			c2.95-0.02,2.94-0.03,3.87-2.93c0.34-1.06,0.72-2.11,1.12-3.14c0.13-0.32,0.25-0.81,0.66-0.79c0.39,0.02,0.54,0.49,0.67,0.82
			c0.47,1.23,0.89,2.48,1.32,3.72c0.77,2.2,0.77,2.2,3.02,2.28c1.36,0.05,2.73,0.09,4.09,0.15c0.35,0.02,0.79-0.11,0.95,0.37
			c0.18,0.51-0.19,0.75-0.52,1.01c-1.34,1.04-2.65,2.11-4.02,3.1c-0.66,0.48-0.9,0.94-0.64,1.76c0.55,1.73,1,3.49,1.49,5.23
			c0.11,0.4,0.2,0.79,0.04,1.38c-1.74-1.18-3.46-2.23-5.04-3.46c-1.04-0.81-1.79-0.76-2.79,0.03
			C362.88,57.41,361.25,58.44,359.48,59.67z"/>
	</g>
	<path class="st2" d="M138.15,175.32c-0.45-0.05-0.75-0.04-1.03-0.11c-0.68-0.19-1.55-0.44-1.7-1.08c-0.15-0.62,0.77-0.84,1.26-1.15
		c2.98-1.92,6.26-2.73,9.79-2.51c1.18,0.07,1.35,0.46,0.76,1.49c-0.28,0.48-0.66,0.86-1.16,1.09
		C143.49,174.22,140.75,174.78,138.15,175.32z"/>
	<path class="st2" d="M215.66,142.55c-1.95-0.03-3.81-1.15-5.63-2.28c-0.69-0.43-0.39-1.27-0.11-1.81c0.6-1.12,1.37-2.16,2.05-3.24
		c0.35-0.55,0.65-0.29,1,0c1.07,0.88,1.9,1.95,2.52,3.18c0.48,0.96,0.9,1.94,1.31,2.94C217.32,142.61,217.3,142.62,215.66,142.55z"
		/>
	<path class="st2" d="M586.37,170.43c3.3,0.18,6.41,0.98,9.16,2.88c0.98,0.67,0.94,0.9-0.07,1.53c-0.79,0.49-1.63,0.56-2.5,0.36
		c-2.36-0.54-4.7-1.19-7-1.99c-0.58-0.2-1.15-0.47-1.53-1c-0.26-0.37-0.5-0.79-0.34-1.26c0.19-0.56,0.72-0.47,1.15-0.51
		C585.63,170.4,586,170.43,586.37,170.43z"/>
	<path class="st2" d="M515.82,142.75c-0.77,0.02-1.19-0.1-1.04-0.83c0.55-2.63,1.91-4.8,3.77-6.7c0.39-0.4,0.65-0.16,0.94,0.08
		c1.21,1.01,1.92,2.36,2.51,3.78c0.26,0.62-0.15,1.12-0.56,1.37C519.64,141.54,517.72,142.4,515.82,142.75z"/>
</g>
<g class="st3">
	<path class="st4" d="M-835.49-164.25c-1.33-0.02-2.59,0.37-3.86,0.67c-0.85,0.2-1.14-0.1-1.25-0.85c-0.33-2.23-0.89-4.4-1.65-6.51
		c-0.91-2.53-1.91-5.01-3.59-7.15c-2.09-3.5-5-6.1-8.79-7.58c-4.77-1.86-9.73-2.15-14.76-1.23c-2.75,0.5-5.3,1.51-7.53,3.21
		c-4.2,3.2-6.21,7.51-5.81,12.74c0.46,6.05,3.69,10.64,8.21,14.44c0.2,0.16,0.41,0.29,0.68,0.22c0,0-0.01-0.01-0.01-0.01
		c-0.04,0.3,0.13,0.39,0.39,0.39c0,0-0.02-0.02-0.02-0.02c0.02,0.26,0.19,0.36,0.42,0.4c2.93,2.46,6.36,4.01,9.91,5.24
		c7.22,2.51,14.42,5.05,21.5,7.95c11.44,4.7,22.53,10.08,32.87,16.93c8.05,5.33,15.26,11.61,21.69,18.8
		c0.11,0.24,0.24,0.46,0.55,0.45c0,0-0.04-0.03-0.04-0.03c0.01,0.57,0.34,0.9,0.84,1.11c0,0-0.02-0.02-0.02-0.02
		c0,0.26,0.11,0.41,0.39,0.4c0,0-0.01-0.01-0.01-0.01c-0.07,0.43,0.24,0.69,0.47,0.98c7.25,9.27,12.21,19.67,15.35,30.97
		c2.29,8.24,3.63,16.63,4.24,25.16c0.74,10.43,0.37,20.8-1.35,31.11c-2.41,14.44-8.28,27.4-16.72,39.27
		c-7.43,10.45-16.99,18.1-29.13,22.55c-13.74,5.03-27.96,7.34-42.48,8.06c-6.13,0.3-12.28,0.21-18.42-0.19
		c-9.22-0.6-18.31-1.93-27.24-4.31c-10.8-2.88-21.04-7.02-29.99-13.91c-0.24-0.19-0.48-0.41-0.83-0.33c0,0,0.02,0.02,0.02,0.02
		c0.02-0.29-0.14-0.39-0.4-0.39c0,0,0.02,0.02,0.02,0.02c-0.06-0.31-0.27-0.38-0.55-0.34c-0.66-0.67-1.29-1.37-1.98-1.99
		c-9.72-8.69-16.67-19.3-21.72-31.24c-3.75-8.87-6.38-18.06-7.8-27.59c-0.13-0.87-0.45-1.67-0.7-2.5c0-0.25,0-0.5,0-0.75
		c0.24-0.06,0.48-0.12,0.73-0.18c14.16-3.2,28.31-6.4,42.47-9.6c8.67-1.96,17.33-3.91,26-5.87c1.46-0.33,1.46-0.33,1.76,1.17
		c0.44,2.14,0.73,4.32,1.7,6.31c1.12,4.11,3.22,7.66,6.19,10.68c0.82,0.83,1.66,1.68,2.85,2.02l-0.01-0.03
		c-0.06,0.23,0.06,0.33,0.27,0.35c1.39,0.86,2.87,1.53,4.41,2.07c5.43,1.9,11.01,2.34,16.68,1.61c3.75-0.49,7.35-1.56,10.55-3.68
		c2.92-1.94,5.19-4.46,5.87-7.96c1.1-5.65,0.22-10.96-3.35-15.65c-1.3-2.2-3.21-3.84-5.2-5.37c-4.61-3.55-9.84-6-15.16-8.23
		c-10.87-4.54-21.94-8.58-32.78-13.19c-9.95-4.23-19.51-9.18-28.14-15.76c-0.29-0.22-0.55-0.54-0.99-0.43l0.02,0.02
		c-0.09-0.42-0.28-0.66-0.74-0.43l0.02,0.02c0.12-0.39-0.07-0.46-0.39-0.39l0.02,0.02c0.07-0.33-0.1-0.42-0.4-0.39l0.02,0.02
		c-0.01-0.36-0.21-0.44-0.52-0.37c-1.29-1.28-2.55-2.58-3.87-3.82c-11.63-10.93-19.16-24.19-22.4-39.83
		c-2.28-11.05-3.02-22.21-2.33-33.48c0.51-8.23,1.83-16.31,4.3-24.18c7.05-22.44,20.96-39.09,42.09-49.57
		c14.35-7.12,29.76-9.82,45.59-10.67c5.02,0,10.04,0,15.06,0c0.13,0.68,0.69,0.39,1.05,0.42c8.76,0.73,17.4,2.1,25.8,4.81
		c13.03,4.19,24.03,11.44,33.04,21.74c0.24,0.27,0.44,0.58,0.65,0.88c0.16,0.13,0.32,0.26,0.48,0.39c0,0-0.02-0.03-0.02-0.03
		c0.02,0.24,0.13,0.39,0.39,0.41c0,0-0.02-0.02-0.02-0.02c0,0.26,0.1,0.42,0.39,0.4c0,0-0.01-0.02-0.01-0.02
		c-0.07,0.35,0.15,0.59,0.34,0.83c5.96,7.71,10.32,16.29,13.69,25.39c2.58,6.94,4.56,14.06,6.05,21.31
		c0.26,1.24,0.25,1.28-1.03,1.56c-1.9,0.41-3.8,0.78-5.71,1.16c-15.41,3.1-30.82,6.18-46.22,9.3
		C-828.78-165.73-832.19-165.23-835.49-164.25z"/>
	<path class="st4" d="M-133.89-117c0.03-0.75,0.09-1.5,0.09-2.25c0-42.28,0-84.57,0.01-126.85c0-2.87-0.32-2.41,2.33-2.45
		c22.14-0.33,44.28-0.64,66.42-0.96c1.69-0.02,1.68-0.03,1.7,1.76c0.02,1.69,0.04,3.38,0.07,5.08c-0.02,6.02-0.07,12.04-0.07,18.06
		c-0.01,89.15-0.01,178.3-0.01,267.46c0,0.25,0,0.5,0,0.75c-0.02,1.69-0.02,1.69-1.62,1.72c-2.88,0.04-5.77,0.1-8.65,0.1
		c-16.31,0.03-32.62,0.04-48.93,0.07c-4.83,0.01-9.66,0.06-14.48,0.09c-0.81-0.03-1.64-0.14-2.44-0.06
		c-1.05,0.11-1.56-0.3-1.96-1.26c-1.51-3.58-3.12-7.12-4.68-10.67c-15.82-35.9-31.65-71.79-47.48-107.69
		c-0.3-0.68-0.52-1.41-1.02-1.99c-0.06-0.24-0.08-0.5-0.17-0.73c-1.99-4.53-3.99-9.07-5.99-13.59c-0.11-0.26-0.16-0.61-0.7-0.72
		c0,0.7,0,1.36,0,2.02c0.11,31.62-0.01,63.24,0.27,94.86c0.11,12.3,0.06,24.59,0.08,36.89c0,0.38-0.02,0.75,0,1.13
		c0.04,0.69-0.21,1.08-0.96,1.04c-0.31-0.02-0.63,0-0.94,0.01c-10.35,0.1-20.7,0.09-31.05,0.26c-10.47,0.17-20.95,0.13-31.42,0.19
		c-0.75,0-1.5,0.07-2.25,0.11c-1.82-0.02-3.63-0.07-5.45-0.04c-0.91,0.02-1.46-0.16-1.31-1.23c0.06-0.43,0.01-0.88,0.01-1.32
		c0-96.52,0-193.03,0-289.55c0-2.57,0-2.57,2.57-2.58c25.16-0.08,50.32-0.16,75.48-0.24c0.31,0,0.64,0.04,0.94-0.01
		c1.09-0.2,1.55,0.38,1.92,1.31c0.74,1.86,1.59,3.68,2.39,5.51c0.17,0.47,0.32,0.94,0.52,1.4c7.54,17.76,15.08,35.52,22.62,53.28
		c11.09,26.12,22.17,52.25,33.26,78.37c0.23,0.54,0.34,1.18,1.02,1.68C-133.84-111.16-133.66-114.08-133.89-117z"/>
	<path class="st4" d="M-475.75,27.12c-5.71-5.63-11.5-11.16-16.3-17.64c-8.65-11.7-14.8-24.64-19.24-38.44
		c-3.37-10.51-5.7-21.26-7.23-32.19c-0.09-0.62-0.24-1.23-0.36-1.84c-0.02-0.5,0-1-0.07-1.5c-0.85-5.83-1.29-11.71-1.7-17.58
		c-0.46-6.63-0.56-13.28-0.51-19.93c0.03-4.2,0.05-8.4,0.26-12.6c0.27-5.44,0.74-10.87,1.2-16.3c1.38-11.39,3.35-22.68,6.52-33.73
		c4.54-15.84,11.05-30.77,20.77-44.16c16.6-22.87,38.76-37.05,66.6-42.08c20.27-3.66,40.32-2.64,59.97,3.76
		c15.92,5.19,29.63,13.95,41.27,25.97c1.48,1.53,2.92,3.1,4.37,4.65c0.1,0.21,0.22,0.41,0.51,0.36c0,0-0.03-0.03-0.03-0.03
		c0,0.57,0.34,0.9,0.83,1.11c0,0-0.02-0.02-0.02-0.02c0,0.25,0.11,0.4,0.39,0.4c0,0-0.01-0.01-0.01-0.01
		c-0.01,0.27,0.08,0.43,0.39,0.39c0,0-0.01-0.01-0.01-0.01c-0.1,0.6,0.39,0.89,0.69,1.27c2.09,2.67,4.08,5.41,5.95,8.23
		c7.73,11.71,13.35,24.4,17.45,37.78c3.5,11.42,5.8,23.08,7.24,34.93c0.89,7.35,1.43,14.73,1.68,22.12
		c0.22,6.71,0.18,13.42-0.12,20.14c-0.31,6.89-0.79,13.77-1.56,20.63c-1.33,11.8-3.54,23.42-6.9,34.81
		c-4.17,14.1-9.99,27.45-18.36,39.6c-11.71,17-27.01,29.52-46.29,37.07c-12.21,4.78-24.93,7.11-37.97,7.72
		c-10.61,0.49-21.2-0.02-31.67-1.91c-16.35-2.95-31.42-8.95-44.73-19.07c-0.35-0.27-0.67-0.8-1.26-0.43c0,0,0.01,0.01,0.01,0.01
		C-474.11,27.55-474.84,27.23-475.75,27.12z M-418.73-18.83c-0.04,0.28,0.14,0.38,0.36,0.45c4.16,3.64,9.06,5.53,14.53,5.89
		c7.15,0.47,13.07-2.33,18.17-7.14c2.9-2.73,5.26-5.89,7.31-9.29c3.22-5.34,5.58-11.07,7.45-17c4.36-13.86,6.15-28.14,6.7-42.59
		c0.47-12.49,0.12-24.96-1.34-37.39c-1.09-9.23-2.72-18.34-5.37-27.26c-2.38-8.02-5.49-15.74-10.2-22.72
		c-0.77-1.14-1.51-2.31-2.56-3.24c-0.05-0.25-0.17-0.43-0.43-0.51l0.02,0.04c-0.14-0.32-0.22-0.73-0.73-0.46l0.02,0.01
		c0.29-0.45-0.11-0.67-0.33-0.94c-1.12-1.37-2.43-2.53-3.79-3.65c-4.13-3.4-8.81-5.53-14.18-5.87c-5.75-0.36-10.87,1.44-15.44,4.87
		c-4.18,3.13-7.4,7.12-10.08,11.55c-5.2,8.58-8.23,17.97-10.39,27.69c-2.81,12.6-3.84,25.4-4.02,38.26
		c-0.14,9.97,0.29,19.93,1.3,29.86c0.74,7.3,1.82,14.55,3.47,21.7c1.93,8.39,4.54,16.56,8.64,24.18c2.39,4.45,5.22,8.57,8.9,12.06
		c0.47,0.45,0.81,1.16,1.64,1.1l-0.01-0.02c-0.07,0.32,0.11,0.41,0.38,0.42L-418.73-18.83z"/>
	<path class="st4" d="M-714.82,27.12c-5.14-5.14-10.47-10.1-14.94-15.88c-8.85-11.43-15.18-24.16-19.8-37.8
		c-3.53-10.41-5.94-21.09-7.63-31.95c-2.77-17.85-3.51-35.82-2.88-53.84c0.68-19.43,3.38-38.57,9.3-57.17
		c4.98-15.66,12.02-30.28,22.27-43.22c15.89-20.06,36.4-32.64,61.48-37.76c12.01-2.45,24.12-2.93,36.31-1.87
		c14.2,1.23,27.74,4.85,40.45,11.37c10.14,5.2,19.1,11.98,26.96,20.22c1.34,1.4,2.8,2.7,3.96,4.27c0.12,0.23,0.24,0.48,0.58,0.4
		c0,0-0.03-0.04-0.03-0.04c0.01,0.57,0.34,0.9,0.83,1.11c0,0-0.02-0.02-0.02-0.02c0,0.25,0.11,0.4,0.39,0.4c0,0-0.01-0.01-0.01-0.01
		c-0.01,0.27,0.08,0.43,0.39,0.39c0,0-0.01-0.01-0.01-0.01c0.52,1.52,1.73,2.56,2.65,3.8c8.8,11.84,15.23,24.9,19.94,38.84
		c4.02,11.92,6.68,24.14,8.36,36.6c1.2,8.96,1.87,17.96,2.1,26.99c0.15,6.21,0.09,12.42-0.17,18.63c-0.37,8.78-1.1,17.51-2.32,26.22
		c-1.48,10.57-3.68,20.98-6.85,31.18c-4.47,14.35-10.68,27.86-19.6,40.03c-11.77,16.06-26.89,27.75-45.56,34.78
		c-11.78,4.44-24.02,6.64-36.55,7.24c-10.68,0.51-21.32,0-31.86-1.9c-16.35-2.95-31.42-8.95-44.73-19.07
		c-0.35-0.27-0.67-0.8-1.26-0.43l0.01,0.01c0.15-0.42-0.02-0.5-0.39-0.38l0.01,0.01C-713.52,27.38-714.05,27.11-714.82,27.12z
		 M-623.16-179.61l0.02,0.04c-0.14-0.32-0.23-0.73-0.73-0.46l0.02,0.01c0.29-0.45-0.11-0.67-0.33-0.94
		c-1.12-1.37-2.43-2.53-3.79-3.65c-4.18-3.44-8.92-5.58-14.37-5.88c-5.69-0.31-10.74,1.49-15.26,4.88
		c-4.18,3.13-7.4,7.12-10.08,11.55c-5.22,8.63-8.26,18.09-10.43,27.87c-2.78,12.54-3.79,25.27-3.99,38.08
		c-0.13,8.47,0.22,16.92,0.9,25.37c0.66,8.19,1.74,16.32,3.47,24.36c1.95,9.04,4.66,17.82,9.04,26.02c2.38,4.45,5.22,8.57,8.9,12.06
		c0.47,0.45,0.81,1.16,1.63,1.1l-0.01-0.02c-0.09,0.32,0.13,0.43,0.35,0.55c7.68,6.85,20.88,9.61,31.75,0.25
		c3.07-2.64,5.61-5.73,7.79-9.12c3.68-5.74,6.29-11.96,8.32-18.44c4.38-13.92,6.15-28.26,6.69-42.76
		c0.46-12.42,0.11-24.82-1.36-37.18c-1.08-9.16-2.7-18.21-5.32-27.06c-2.39-8.09-5.51-15.85-10.25-22.89
		c-0.77-1.14-1.51-2.31-2.56-3.24C-622.79-179.35-622.91-179.54-623.16-179.61z"/>
	<path class="st5" d="M-474.03,28.59c0.59-0.37,0.91,0.16,1.26,0.43c13.31,10.12,28.38,16.12,44.73,19.07
		c10.47,1.89,21.06,2.4,31.67,1.91c13.04-0.61,25.76-2.94,37.97-7.72c19.28-7.54,34.58-20.06,46.29-37.07
		c8.37-12.16,14.19-25.5,18.36-39.6c3.37-11.39,5.57-23.01,6.9-34.81c0.77-6.86,1.25-13.73,1.56-20.63
		c0.3-6.71,0.34-13.43,0.12-20.14c-0.24-7.39-0.79-14.77-1.68-22.12c-1.44-11.85-3.74-23.51-7.24-34.93
		c-4.1-13.39-9.72-26.08-17.45-37.78c-1.87-2.83-3.86-5.57-5.95-8.23c-0.29-0.38-0.79-0.67-0.69-1.27c0.88,0.02,1.21,0.79,1.68,1.3
		c6.52,7.02,12.05,14.76,16.72,23.12c7.67,13.74,12.8,28.43,16.2,43.75c2.03,9.13,3.37,18.35,4.24,27.66
		c1.02,10.89,1.29,21.79,0.96,32.71c-0.53,17.78-2.54,35.37-7.06,52.62c-4.06,15.51-9.97,30.23-18.88,43.64
		c-9.7,14.59-22.13,26.21-37.76,34.27c-9.71,5.01-20.01,8.27-30.75,10.18c-10.42,1.86-20.94,2.32-31.48,1.81
		c-16.84-0.82-33-4.43-48.06-12.29c-7.43-3.88-14.26-8.64-20.41-14.36C-473.24,29.68-473.95,29.38-474.03,28.59z"/>
	<path class="st5" d="M-713.1,28.59c0.59-0.37,0.91,0.17,1.26,0.43c13.31,10.12,28.38,16.12,44.73,19.07
		c10.54,1.9,21.18,2.41,31.86,1.9c12.53-0.6,24.77-2.8,36.55-7.24c18.67-7.03,33.78-18.72,45.56-34.78
		c8.92-12.17,15.13-25.67,19.6-40.03c3.17-10.2,5.37-20.61,6.85-31.18c1.22-8.7,1.94-17.44,2.32-26.22
		c0.26-6.21,0.33-12.42,0.17-18.63c-0.23-9.03-0.9-18.03-2.1-26.99c-1.67-12.46-4.33-24.68-8.36-36.6
		c-4.71-13.94-11.14-26.99-19.94-38.84c-0.92-1.24-2.12-2.28-2.65-3.8c0.87,0.02,1.21,0.78,1.68,1.3
		c7.25,7.81,13.27,16.49,18.23,25.9c7.12,13.5,11.92,27.83,15.06,42.73c0.94,4.47,1.7,8.97,2.55,13.46
		c-0.46,5.43-0.93,10.85-1.2,16.3c-0.21,4.2-0.23,8.4-0.26,12.6c-0.05,6.65,0.05,13.3,0.51,19.93c0.41,5.87,0.85,11.75,1.7,17.58
		c0.07,0.49,0.05,1,0.07,1.5c-0.62,2.43-0.73,4.94-1.09,7.41c-2.9,19.6-8.04,38.51-17.42,56.09c-7.92,14.83-18.38,27.49-32.18,37.25
		c-12.17,8.61-25.71,13.97-40.29,16.83c-11.2,2.2-22.52,2.75-33.89,2.17C-658.7,56-673.17,53-686.86,46.71
		c-9.08-4.17-17.32-9.59-24.69-16.33C-712.13,29.86-712.9,29.46-713.1,28.59z"/>
	<path class="st5" d="M-137.03,45.57c4.83-0.03,9.66-0.08,14.48-0.09c16.31-0.03,32.62-0.04,48.93-0.07
		c2.88-0.01,5.77-0.06,8.65-0.1c1.6-0.02,1.6-0.03,1.62-1.72c0-0.25,0-0.5,0-0.75c0-89.15,0-178.3,0.01-267.46
		c0-6.02,0.05-12.04,0.07-18.06c1.82-0.04,3.64-0.04,5.45-0.13c1-0.05,1.37,0.35,1.27,1.31c-0.04,0.37-0.01,0.75-0.01,1.13
		c-0.01,96.74-0.01,193.48-0.03,290.23c0,2.4,0.4,2.36-2.3,2.36c-24.4,0.02-48.8,0.03-73.2,0.1c-1.56,0-2.39-0.42-2.89-1.91
		C-135.53,48.76-136.33,47.18-137.03,45.57z"/>
	<path class="st5" d="M-931.48,34.64c0.35-0.08,0.59,0.14,0.83,0.33c8.96,6.88,19.19,11.03,29.99,13.91
		c8.92,2.38,18.02,3.71,27.24,4.31c6.14,0.4,12.29,0.49,18.42,0.19c14.52-0.71,28.74-3.03,42.48-8.06
		c12.14-4.45,21.7-12.1,29.13-22.55c8.44-11.87,14.31-24.83,16.72-39.27c1.72-10.32,2.09-20.68,1.35-31.11
		c-0.6-8.53-1.95-16.92-4.24-25.16c-3.14-11.3-8.1-21.7-15.35-30.97c-0.22-0.29-0.54-0.54-0.47-0.98c0.95,0.03,1.31,0.87,1.83,1.42
		c7.45,7.88,13.22,16.84,17.27,26.91c3.53,8.77,5.65,17.89,6.93,27.24c1.19,8.67,1.42,17.37,0.99,26.09
		c-1.08,21.8-8.38,41.23-22.49,57.99c-6.78,8.06-15.25,13.68-25.12,17.28c-8.75,3.19-17.75,5.26-26.96,6.57
		c-10.28,1.46-20.6,1.86-30.95,1.37c-14.54-0.69-28.74-3.15-42.35-8.53c-8.79-3.48-16.7-8.33-23.53-14.89
		C-930.4,36.12-931.31,35.68-931.48,34.64z"/>
	<path class="st5" d="M-267.75,45.35c0.75-0.04,1.5-0.1,2.25-0.11c10.48-0.06,20.95-0.01,31.42-0.19
		c10.35-0.17,20.7-0.16,31.05-0.26c0.31,0,0.63-0.02,0.94-0.01c0.75,0.04,1-0.35,0.96-1.04c-0.02-0.38,0-0.75,0-1.13
		c-0.02-12.3,0.03-24.59-0.08-36.89c-0.27-31.62-0.16-63.24-0.27-94.86c0-0.66,0-1.32,0-2.02c0.53,0.12,0.59,0.47,0.7,0.72
		c2.01,4.53,4,9.06,5.99,13.59c0.1,0.22,0.12,0.48,0.17,0.73c-0.01,3.89-0.05,7.78-0.04,11.67c0.02,16.88-0.03,33.76,0.11,50.64
		c0.18,21.02,0.11,42.04,0.19,63.06c0.01,2.62,0.24,2.31-2.3,2.33c-22.96,0.17-45.92,0.33-68.88,0.49c-0.19,0-0.38,0-0.56,0
		c-1.63-0.01-1.64-0.01-1.65-1.65C-267.76,48.74-267.75,47.04-267.75,45.35z"/>
	<path class="st5" d="M-835.49-164.25c3.3-0.97,6.71-1.47,10.07-2.16c15.4-3.12,30.81-6.2,46.22-9.3c1.9-0.38,3.81-0.75,5.71-1.16
		c1.29-0.28,1.29-0.31,1.03-1.56c-1.49-7.25-3.47-14.37-6.05-21.31c-3.38-9.1-7.74-17.68-13.69-25.39
		c-0.19-0.25-0.41-0.48-0.34-0.83c1.18,0.3,1.74,1.35,2.48,2.14c5.23,5.56,9.46,11.82,12.96,18.6c5.5,10.65,8.99,21.99,11.48,33.67
		c0.26,1.23,0.24,1.26-1.34,1.58c-5.21,1.06-10.43,2.09-15.64,3.13c-16.01,3.21-32.02,6.43-48.03,9.65
		c-0.55,0.11-1.11,0.21-1.66,0.32c-1.37,0.26-1.41,0.27-1.6-1.01C-834.21-160.07-834.86-162.15-835.49-164.25z"/>
	<path class="st5" d="M-133.89-117c0.23,2.92,0.04,5.84,0.1,8.93c-0.69-0.49-0.79-1.14-1.02-1.68
		c-11.09-26.12-22.17-52.24-33.26-78.37c-7.54-17.76-15.08-35.52-22.62-53.28c-0.19-0.46-0.34-0.93-0.52-1.4
		c1.25-0.01,2.67-0.46,3.68,0.18c0.94,0.6,1.09,2.05,1.55,3.13c14.39,33.86,28.77,67.71,43.15,101.57
		c2.57,6.06,5.12,12.12,7.69,18.18C-134.74-118.81-134.3-117.91-133.89-117z"/>
	<path class="st5" d="M-873.84-156.29c-0.27,0.07-0.48-0.05-0.68-0.22c-4.52-3.8-7.75-8.4-8.21-14.44
		c-0.4-5.23,1.62-9.55,5.81-12.74c2.23-1.7,4.78-2.7,7.53-3.21c5.03-0.92,9.98-0.63,14.76,1.23c3.79,1.48,6.7,4.08,8.79,7.58
		c-4.61-2.16-9.47-2.72-14.49-2.34c-2.92,0.22-5.67,1.02-8.21,2.48c-5.86,3.35-8.61,9.85-6.98,16.41c0.35,1.4,0.84,2.75,1.47,4.06
		C-873.88-157.12-873.47-156.76-873.84-156.29z"/>
	<path class="st6" d="M-475.75,27.12c0.91,0.11,1.64,0.43,1.74,1.48C-474.89,28.46-475.28,27.74-475.75,27.12z"/>
	<path class="st6" d="M-714.82,27.12c0.77-0.02,1.3,0.26,1.36,1.11C-714.21,28.22-714.46,27.61-714.82,27.12z"/>
	<path class="st6" d="M-557.96-215.03c-0.49-0.21-0.82-0.54-0.83-1.11C-558.36-215.89-557.84-215.7-557.96-215.03z"/>
	<path class="st6" d="M-318.89-215.03c-0.49-0.21-0.83-0.53-0.83-1.11C-319.29-215.88-318.78-215.69-318.89-215.03z"/>
	<path class="st6" d="M-785.73-105.07c-0.5-0.2-0.82-0.54-0.84-1.11C-786.15-105.92-785.63-105.74-785.73-105.07z"/>
	<path class="st6" d="M-558.76-216.1c-0.34,0.08-0.46-0.16-0.58-0.4C-559.03-216.53-558.82-216.43-558.76-216.1z"/>
	<path class="st6" d="M-873.46-155.91c-0.26,0-0.43-0.1-0.39-0.39C-873.43-156.46-873.44-156.19-873.46-155.91z"/>
	<path class="st6" d="M-873.06-155.52c-0.23-0.04-0.4-0.14-0.42-0.4C-873.17-155.97-873.11-155.75-873.06-155.52z"/>
	<path class="st6" d="M-786.53-106.15c-0.31,0.01-0.44-0.2-0.55-0.45C-786.8-106.57-786.61-106.43-786.53-106.15z"/>
	<path class="st6" d="M-318.15-214.28c-0.3,0.04-0.4-0.12-0.39-0.39C-318.19-214.76-318.05-214.63-318.15-214.28z"/>
	<path class="st6" d="M-785.37-104.7c-0.28,0.02-0.39-0.14-0.39-0.4C-785.4-105.17-785.27-105.05-785.37-104.7z"/>
	<path class="st6" d="M-557.22-214.28c-0.3,0.04-0.4-0.12-0.39-0.39C-557.25-214.76-557.12-214.63-557.22-214.28z"/>
	<path class="st6" d="M-318.53-214.65c-0.27,0-0.38-0.14-0.39-0.4C-318.56-215.14-318.42-215.01-318.53-214.65z"/>
	<path class="st6" d="M-557.59-214.66c-0.27,0.01-0.38-0.14-0.39-0.4C-557.63-215.14-557.49-215.01-557.59-214.66z"/>
	<path class="st6" d="M-319.69-216.11c-0.29,0.05-0.4-0.14-0.51-0.36C-319.93-216.48-319.76-216.37-319.69-216.11z"/>
	<path class="st6" d="M-792.52-225.94c-0.29,0.02-0.39-0.14-0.39-0.4C-792.6-226.39-792.46-226.26-792.52-225.94z"/>
	<path class="st6" d="M-792.89-226.33c-0.26-0.01-0.37-0.17-0.39-0.41C-792.99-226.74-792.84-226.64-792.89-226.33z"/>
	<path class="st6" d="M-793.26-226.7c-0.16-0.13-0.32-0.26-0.48-0.39C-793.41-227.17-793.26-227.03-793.26-226.7z"/>
	<path class="st6" d="M-713.47,28.22c0.37-0.11,0.55-0.03,0.39,0.38C-713.39,28.65-713.52,28.53-713.47,28.22z"/>
	<path class="st6" d="M-932.39,33.94c0.27-0.03,0.48,0.04,0.55,0.34C-932.14,34.36-932.27,34.16-932.39,33.94z"/>
	<path class="st6" d="M-931.86,34.27c0.26,0,0.42,0.1,0.4,0.39C-931.77,34.71-931.89,34.56-931.86,34.27z"/>
	<path class="st5" d="M-848.48-48.89c-0.18-0.04-0.39-0.02-0.54-0.12c-6.8-4.36-14.29-7.24-21.75-10.2
		c-10.36-4.11-20.82-8.01-30.92-12.75c-9.23-4.33-17.93-9.54-25.66-16.24c-1.04-0.9-2.05-1.85-3.05-2.8
		c-0.23-0.22-0.68-0.42-0.34-0.89c0.44-0.1,0.7,0.21,0.99,0.43c8.63,6.59,18.19,11.53,28.14,15.76
		c10.84,4.61,21.91,8.65,32.78,13.19c5.33,2.23,10.55,4.67,15.16,8.23C-851.69-52.72-849.78-51.09-848.48-48.89z"/>
	<path class="st5" d="M-891.93-38.3c1.22-0.27,2.45-0.53,3.66-0.82c0.82-0.2,1.24-0.04,1.39,0.91c0.29,1.92,0.71,3.81,1.3,5.67
		c0.61,1.91,1.33,3.78,2.23,5.57c0.21,0.43,0.64,0.81,0.46,1.38c-1.19-0.34-2.03-1.19-2.85-2.02
		C-888.72-30.64-890.81-34.19-891.93-38.3z"/>
	<path class="st6" d="M-930.72-91.86c-0.52,0.33-0.64-0.04-0.74-0.43C-930.99-92.52-930.8-92.28-930.72-91.86z"/>
	<path class="st6" d="M-932.2-93.02c-0.27,0.02-0.41-0.16-0.52-0.37C-932.41-93.45-932.21-93.38-932.2-93.02z"/>
	<path class="st6" d="M-931.82-92.65c-0.27,0.01-0.4-0.12-0.4-0.39C-931.92-93.07-931.75-92.98-931.82-92.65z"/>
	<path class="st6" d="M-931.44-92.27c-0.28,0.02-0.4-0.11-0.39-0.39C-931.51-92.73-931.32-92.66-931.44-92.27z"/>
	<path class="st6" d="M-882.91-25.62c0.21,0.03,0.22,0.2,0.27,0.35C-882.85-25.29-882.97-25.39-882.91-25.62z"/>
	<path class="st5" d="M-384.79-180.01c-0.56,0.09-0.93-0.32-1.36-0.55c-8.99-4.81-17.6-4.15-25.75,1.9
		c-5.15,3.82-8.72,8.96-11.71,14.54c-3.27,6.12-5.54,12.61-7.32,19.3c-2.25,8.51-3.57,17.17-4.4,25.92
		c-1.06,11.27-1.09,22.56-0.6,33.84c0.6,13.87,2.2,27.62,5.93,41.04c2.38,8.56,5.57,16.78,10.66,24.15
		c0.13,0.19,0.17,0.45,0.26,0.68c-0.83,0.05-1.16-0.66-1.64-1.1c-3.68-3.49-6.52-7.61-8.9-12.06c-4.09-7.63-6.7-15.79-8.64-24.18
		c-1.65-7.15-2.73-14.39-3.47-21.7c-1.01-9.93-1.44-19.89-1.3-29.86c0.18-12.87,1.21-25.67,4.02-38.26
		c2.16-9.71,5.2-19.11,10.39-27.69c2.69-4.43,5.9-8.42,10.08-11.55c4.58-3.43,9.69-5.23,15.44-4.87c5.38,0.34,10.06,2.47,14.18,5.87
		c1.36,1.12,2.67,2.28,3.79,3.65C-384.9-180.69-384.49-180.46-384.79-180.01z"/>
	<path class="st6" d="M-384.07-179.57c-0.39,0.08-0.65-0.05-0.73-0.46C-384.3-180.3-384.21-179.89-384.07-179.57z"/>
	<path class="st6" d="M-383.67-179.11c-0.23-0.09-0.48-0.17-0.43-0.51C-383.84-179.54-383.72-179.35-383.67-179.11z"/>
	<path class="st6" d="M-419.09-19.21c0.26,0.01,0.36,0.18,0.38,0.42C-418.98-18.8-419.16-18.89-419.09-19.21z"/>
	<path class="st6" d="M-418.73-18.83c0.22,0.08,0.33,0.23,0.36,0.45C-418.59-18.44-418.77-18.55-418.73-18.83z"/>
	<path class="st5" d="M-623.85-180.01c-0.56,0.09-0.93-0.32-1.35-0.55c-8.65-4.79-18.1-4.06-25.92,2
		c-4.29,3.32-7.53,7.52-10.26,12.15c-4.27,7.25-7,15.12-9.04,23.23c-2.02,8.04-3.21,16.22-3.98,24.47
		c-1.06,11.33-1.06,22.69-0.58,34.03c0.5,11.66,1.78,23.25,4.4,34.65c1.77,7.72,4.11,15.25,7.62,22.38
		c1.28,2.59,2.71,5.09,4.35,7.47c0.21,0.3,0.5,0.57,0.46,1c-0.83,0.05-1.16-0.66-1.63-1.1c-3.68-3.48-6.52-7.61-8.9-12.06
		c-4.38-8.19-7.09-16.98-9.04-26.02c-1.73-8.03-2.81-16.16-3.47-24.36c-0.68-8.45-1.03-16.9-0.9-25.37
		c0.19-12.8,1.21-25.54,3.99-38.08c2.17-9.78,5.2-19.24,10.43-27.87c2.68-4.44,5.9-8.42,10.08-11.55c4.52-3.39,9.57-5.19,15.26-4.88
		c5.45,0.3,10.19,2.44,14.37,5.88c1.36,1.11,2.67,2.28,3.79,3.65C-623.96-180.69-623.56-180.46-623.85-180.01z"/>
	<path class="st6" d="M-623.14-179.57c-0.39,0.08-0.65-0.04-0.73-0.46C-623.37-180.29-623.28-179.89-623.14-179.57z"/>
	<path class="st6" d="M-622.74-179.11c-0.23-0.09-0.48-0.18-0.43-0.51C-622.91-179.54-622.79-179.35-622.74-179.11z"/>
	<path class="st6" d="M-658.16-19.21c0.31,0.06,0.38,0.28,0.35,0.55C-658.03-18.78-658.25-18.89-658.16-19.21z"/>
</g>
<g class="st3">
	<g class="st7">
		<path class="st0" d="M-2908.07,910.56c0,0-0.65,7.78-5.1,19.37c-6.78,17.59-29.51,43.67-86.06,45.43
			c-54.78,1.72-87.91-22.13-95.77-65.79c-1.21-6.77-1.88-13.95-1.88-21.73c0-6.67,0.55-12.93,1.55-18.8
			c7.75-45.68,44.95-68.8,96.1-68.82c33.87-0.02,57.37,9.22,71.49,26.04c14.25,16.98,18.84,36.58,18.84,36.58l-62.59,9.07
			c-2.46-16.98-11.47-27.59-28.21-28.77c-11.87-0.83-23.84,5.29-30.21,18.35c-8.79,18.04-4.71,49.48,9.03,61.68
			c9.35,8.3,28.05,8.39,36.08,3.39c12.6-7.85,13.77-23.03,13.77-23.03L-2908.07,910.56z"/>
		<path class="st0" d="M-2710.22,887.94c0,53.05-32.78,87.51-97.97,87.51c-61.23,0-97.46-29.56-97.46-87.56
			c0-58.11,41.48-87.46,97.46-87.46C-2745.04,800.42-2710.21,836.4-2710.22,887.94z M-2775.59,887.99
			c-0.51-30.64-13.71-51.5-33.48-51.53c-18.2-0.03-32.52,18.9-31.86,51.43c0.57,33.76,14.7,51.39,33.6,51.42
			C-2788.55,939.33-2775.05,919.41-2775.59,887.99z"/>
		<path class="st0" d="M-2469.99,972.74l-63.51-0.1l-3.61-69.87l-36.51,69.89h-27.62l-38.95-70.57l-1.67,70.57l-64.69,0.08
			l13.23-170.1l57.24-0.01l47.81,93.14l47.33-93.14h51.77L-2469.99,972.74z"/>
		<path class="st0" d="M-2460.11,972.74V802.75h69.27v169.98H-2460.11z"/>
		<path class="st0" d="M-2201.36,816.01h-0.01l0.01,60.9l-0.03,13.96v67.9l0.01,8.74l0.01,5.17l-64.13,0.06l-50.16-79.41l0.28,79.01
			l-60.7,0.32V802.44l66.48-0.1l49.93,82.1v-81.5l58.31-0.57V816.01z"/>
		<path class="st0" d="M-2003.95,876.99l-0.05,96.1l-38.21-0.18l-7.18-38.09c0,0-0.97,20.35-21.98,34.79
			c-25.01,17.2-65.96,10.74-84.64-1.13c-19.17-12.18-29.98-30.18-34.73-51.16c-2.26-9.98-3.05-31.12,0.18-48.53
			c8.57-46.12,45.4-70.58,94.98-70.68c32.73,0,54.52,10.25,69.22,26.44c14.59,16.09,16.23,29.31,16.23,29.31l-59,13.77
			c-3.95-18.17-11.16-25.78-26.99-25.97c-11.49-0.14-22.6,6.59-29.35,20c-5.27,10.46-9.41,42.32,6.94,62.71
			c11.19,13.93,34.59,10.48,42.77,3.56c8.03-6.79,8.7-14.88,8.7-14.88h-2.36l-30.37-0.1l-0.79-36.05L-2003.95,876.99z"/>
	</g>
	<g class="st7">
		<path class="st1" d="M-2913.59,904.77c0,0-0.65,7.78-5.1,19.37c-6.78,17.59-29.51,43.67-86.06,45.43
			c-54.78,1.72-87.91-22.13-95.77-65.79c-1.21-6.77-1.88-13.95-1.88-21.73c0-6.67,0.55-12.93,1.55-18.8
			c7.75-45.68,44.95-68.8,96.1-68.82c33.87-0.02,57.37,9.22,71.49,26.04c14.25,16.98,18.84,36.58,18.84,36.58l-62.59,9.07
			c-2.46-16.98-11.47-27.59-28.21-28.77c-11.87-0.83-23.84,5.29-30.21,18.35c-8.79,18.04-4.71,49.48,9.03,61.68
			c9.35,8.3,28.05,8.39,36.08,3.39c12.6-7.85,13.77-23.03,13.77-23.03L-2913.59,904.77z"/>
		<path class="st1" d="M-2715.74,882.15c0,53.05-32.78,87.51-97.97,87.51c-61.23,0-97.46-29.56-97.46-87.56
			c0-58.11,41.48-87.46,97.46-87.46C-2750.56,794.64-2715.73,830.61-2715.74,882.15z M-2781.11,882.2
			c-0.52-30.64-13.71-51.5-33.48-51.53c-18.2-0.03-32.52,18.9-31.86,51.43c0.57,33.76,14.7,51.39,33.6,51.42
			C-2794.07,933.55-2780.57,913.63-2781.11,882.2z"/>
		<path class="st1" d="M-2475.51,966.95l-63.51-0.1l-3.61-69.87l-36.51,69.89h-27.62l-38.95-70.57l-1.67,70.57l-64.68,0.08
			l13.23-170.1l57.24-0.01l47.81,93.14l47.33-93.14h51.77L-2475.51,966.95z"/>
		<path class="st1" d="M-2465.63,966.95V796.97h69.27v169.98H-2465.63z"/>
		<path class="st1" d="M-2206.88,810.23h-0.01l0.01,60.9l-0.03,13.96v67.9l0.01,8.74l0.01,5.17l-64.13,0.06l-50.16-79.41l0.28,79.01
			l-60.7,0.32V796.66l66.48-0.1l49.93,82.1v-81.5l58.31-0.57V810.23z"/>
		<path class="st1" d="M-2009.47,871.2l-0.05,96.1l-38.21-0.18l-7.18-38.09c0,0-0.97,20.35-21.98,34.79
			c-25.01,17.2-65.96,10.74-84.64-1.13c-19.17-12.18-29.98-30.18-34.73-51.16c-2.26-9.98-3.05-31.12,0.18-48.53
			c8.57-46.12,45.4-70.58,94.98-70.68c32.73,0,54.52,10.25,69.22,26.44c14.59,16.09,16.23,29.31,16.23,29.31l-59,13.77
			c-3.95-18.17-11.16-25.78-26.99-25.97c-11.49-0.14-22.6,6.59-29.35,20c-5.27,10.46-9.41,42.32,6.94,62.71
			c11.19,13.93,34.59,10.48,42.77,3.56c8.03-6.79,8.7-14.88,8.7-14.88h-2.36l-30.37-0.1l-0.79-36.05L-2009.47,871.2z"/>
	</g>
</g>
<g class="st3">
	
		<text transform="matrix(1 0 0 1 -3118.4224 1334.431)" class="st5" style="font-family:'AndersonGroteskBlack'; font-size:255.6151px;">COMING</text>
	
		<text transform="matrix(1 0 0 1 -3124.147 1328.431)" class="st4" style="font-family:'AndersonGroteskBlack'; font-size:255.6151px;">COMING</text>
</g>
<g class="st3">
	
		<text transform="matrix(1 0 0 1 -3118.4224 1304.814)" class="st5" style="font-family:'AndersonGroteskBlack'; font-size:255.6151px;">SOON</text>
	
		<text transform="matrix(1 0 0 1 -3124.147 1298.814)" class="st4" style="font-family:'AndersonGroteskBlack'; font-size:255.6151px;">SOON</text>
</g>
<g class="st3">
	<g class="st7">
		<path class="st0" d="M-2936.15,1012.75c-6.34,9.34-14.51,16.5-25.53,20.27c-22.94,7.85-65.4,8.99-91.73-0.6
			c-31.17-11.36-34.65-39.7-34.65-39.7l56.14-8.85c0,0,0.77,6.18,6.17,10.11c7.99,5.79,32.61,5.17,32.96-4.6
			c0.39-10.77-15.67-13.49-36.81-19.49c-16.01-4.55-49.32-12.77-55.02-39.58c-7.9-37.16,22.31-63.83,80.56-62.38
			c32.85,0.82,59.34,10.11,69.01,43.16l-54.36,7.62c0,0-1.7-11.36-14.15-12.99c-22.94-3-27.78,14.69-3.32,20.44
			c46.21,10.86,69.39,23.84,75.86,48.92C-2927.67,988.05-2929.1,1002.4-2936.15,1012.75z"/>
		<path class="st0" d="M-2737.63,953.17c0,51.04-31.54,84.2-94.26,84.2c-58.91,0-93.77-28.44-93.77-84.25
			c0-55.91,39.91-84.15,93.77-84.15C-2771.12,868.98-2737.62,903.59-2737.63,953.17z M-2800.52,953.22
			c-0.5-29.48-13.19-49.55-32.21-49.58c-17.51-0.03-31.29,18.18-30.66,49.48c0.54,32.48,14.15,49.44,32.33,49.47
			C-2812.99,1002.62-2800,983.46-2800.52,953.22z"/>
		<path class="st0" d="M-2547.24,953.17c0,51.04-31.54,84.2-94.26,84.2c-58.91,0-93.77-28.44-93.77-84.25
			c0-55.91,39.91-84.15,93.77-84.15C-2580.74,868.98-2547.23,903.59-2547.24,953.17z M-2610.13,953.22
			c-0.5-29.48-13.19-49.55-32.21-49.58c-17.51-0.03-31.29,18.18-30.66,49.48c0.54,32.48,14.15,49.44,32.33,49.47
			C-2622.6,1002.62-2609.61,983.46-2610.13,953.22z"/>
		<path class="st0" d="M-2370.85,883.98h-0.01l0.01,58.59l-0.03,13.43v65.33l0.01,8.41l0.01,4.98l-61.7,0.06l-48.26-76.4l0.27,76.02
			l-58.4,0.31V870.92l63.97-0.1l48.04,78.99v-78.41l56.1-0.54V883.98z"/>
	</g>
	<g class="st7">
		<path class="st1" d="M-2941.46,1007.18c-6.34,9.34-14.51,16.5-25.53,20.27c-22.94,7.85-65.4,8.99-91.73-0.6
			c-31.17-11.36-34.65-39.7-34.65-39.7l56.14-8.85c0,0,0.77,6.18,6.17,10.11c7.99,5.79,32.61,5.17,32.96-4.6
			c0.39-10.77-15.67-13.49-36.81-19.49c-16.01-4.55-49.32-12.77-55.02-39.58c-7.9-37.16,22.31-63.83,80.56-62.38
			c32.85,0.82,59.34,10.11,69.01,43.16l-54.36,7.62c0,0-1.7-11.36-14.15-12.99c-22.94-3-27.78,14.69-3.32,20.44
			c46.21,10.86,69.39,23.84,75.86,48.92C-2932.98,982.49-2934.41,996.84-2941.46,1007.18z"/>
		<path class="st1" d="M-2742.94,947.61c0,51.04-31.54,84.2-94.26,84.2c-58.91,0-93.77-28.44-93.77-84.25
			c0-55.91,39.91-84.15,93.77-84.15C-2776.43,863.41-2742.93,898.02-2742.94,947.61z M-2805.83,947.66
			c-0.5-29.48-13.19-49.55-32.21-49.58c-17.51-0.03-31.29,18.18-30.66,49.48c0.54,32.48,14.15,49.44,32.33,49.47
			C-2818.3,997.06-2805.31,977.9-2805.83,947.66z"/>
		<path class="st1" d="M-2552.55,947.61c0,51.04-31.54,84.2-94.26,84.2c-58.91,0-93.77-28.44-93.77-84.25
			c0-55.91,39.91-84.15,93.77-84.15C-2586.05,863.41-2552.54,898.02-2552.55,947.61z M-2615.44,947.66
			c-0.5-29.48-13.19-49.55-32.21-49.58c-17.51-0.03-31.29,18.18-30.66,49.48c0.54,32.48,14.15,49.44,32.33,49.47
			C-2627.91,997.06-2614.92,977.9-2615.44,947.66z"/>
		<path class="st1" d="M-2376.16,878.41L-2376.16,878.41V937l-0.03,13.43v65.33l0.01,8.41l0.01,4.98l-61.7,0.06l-48.26-76.4
			l0.27,76.02l-58.4,0.31V865.35l63.97-0.1l48.04,78.99v-78.41l56.1-0.54V878.41z"/>
	</g>
</g>
</svg>
