<?xml version="1.0" encoding="utf-8"?>
<!-- Generator: Adobe Illustrator 28.1.0, SVG Export Plug-In . SVG Version: 6.00 Build 0)  -->
<svg version="1.1" id="Layer_1" xmlns="http://www.w3.org/2000/svg" xmlns:xlink="http://www.w3.org/1999/xlink" x="0px" y="0px"
	 viewBox="0 0 277.7 74.74" style="enable-background:new 0 0 277.7 74.74;" xml:space="preserve">
<style type="text/css">
	.st0{display:none;}
	.st1{display:inline;}
</style>
<g class="st0">
	<path class="st1" d="M51.24,25.73c-0.27-1.8-0.87-3.44-1.8-4.94c-0.93-1.5-2.1-2.81-3.49-3.94c-1.4-1.13-2.98-2.01-4.74-2.65
		c-1.76-0.63-3.61-0.95-5.54-0.95c-3.53,0-6.52,0.68-8.98,2.05c-2.46,1.37-4.46,3.19-5.99,5.49c-1.53,2.3-2.65,4.91-3.34,7.84
		c-0.7,2.93-1.05,5.96-1.05,9.08c0,3,0.35,5.91,1.05,8.73c0.7,2.83,1.81,5.38,3.34,7.64c1.53,2.26,3.53,4.08,5.99,5.44
		c2.46,1.36,5.46,2.05,8.98,2.05c4.79,0,8.53-1.48,11.23-4.44c2.7-2.96,4.34-6.8,4.94-11.53h15.17c-0.4,4.46-1.43,8.48-3.09,12.08
		c-1.66,3.59-3.86,6.66-6.59,9.18c-2.73,2.53-5.92,4.48-9.58,5.84c-3.66,1.36-7.69,2.05-12.08,2.05c-5.52,0-10.45-0.97-14.77-2.9
		c-4.33-1.93-7.99-4.56-10.98-7.88c-2.99-3.33-5.29-7.25-6.89-11.78c-1.6-4.52-2.4-9.35-2.4-14.47c0-5.26,0.8-10.18,2.4-14.77
		c1.6-4.59,3.89-8.58,6.89-11.98c2.99-3.39,6.65-6.05,10.98-7.98c4.33-1.93,9.25-2.9,14.77-2.9c3.93,0,7.64,0.57,11.13,1.7
		c3.49,1.13,6.62,2.78,9.38,4.94c2.76,2.16,5.04,4.84,6.84,8.03c1.8,3.19,2.93,6.85,3.39,10.98H51.24z"/>
	<path class="st1" d="M95.16,1.78h16.07l26.65,71.27h-16.27l-5.39-15.87H89.57l-5.59,15.87H68.11L95.16,1.78z M93.67,45.5h18.47
		l-8.98-26.15h-0.2L93.67,45.5z"/>
	<path class="st1" d="M144.07,1.78h38.43c3.19,0,6.07,0.52,8.63,1.55c2.56,1.03,4.76,2.45,6.59,4.24c1.83,1.8,3.23,3.89,4.19,6.29
		c0.96,2.4,1.45,4.93,1.45,7.59c0,4.19-0.88,7.82-2.65,10.88c-1.76,3.06-4.64,5.39-8.63,6.99v0.2c1.93,0.53,3.53,1.35,4.79,2.45
		c1.26,1.1,2.3,2.41,3.09,3.94c0.8,1.53,1.38,3.18,1.75,4.94c0.37,1.76,0.61,3.54,0.75,5.34c0.07,1.13,0.13,2.46,0.2,3.99
		c0.07,1.53,0.18,3.08,0.35,4.64c0.17,1.56,0.43,3.08,0.8,4.54c0.37,1.46,0.91,2.7,1.65,3.69h-15.67c-0.47-1.13-0.82-2.38-1.05-3.74
		c-0.23-1.36-0.43-2.79-0.6-4.29c-0.17-1.5-0.3-3.03-0.4-4.59c-0.1-1.56-0.25-3.04-0.45-4.44c-0.53-3.73-1.66-6.45-3.39-8.18
		c-1.73-1.73-4.56-2.6-8.48-2.6h-15.67v27.85h-15.67V1.78z M159.75,34.02h17.17c3.53,0,6.2-0.8,8.04-2.4
		c1.83-1.6,2.74-4.19,2.74-7.79c0-3.46-0.92-5.97-2.74-7.54c-1.83-1.56-4.51-2.34-8.04-2.34h-17.17V34.02z"/>
	<path class="st1" d="M229.92,14.95h-21.36V1.78h58.39v13.18h-21.36v58.09h-15.67V14.95z"/>
</g>
<text transform="matrix(1 0 0 1 521.2676 -58.6974)" class="st0" style="font-family:'HelveticaNeueCE-Bold'; font-size:99.8181px;">CART</text>
<g>
	<path d="M15.18,49.31c0,2.4,0.43,4.43,1.3,6.09c0.86,1.66,2.01,3.01,3.44,4.04c1.43,1.03,3.09,1.8,4.99,2.3s3.91,0.75,6.04,0.75
		c1.4,0,2.89-0.12,4.49-0.35c1.6-0.23,3.09-0.68,4.49-1.35c1.4-0.66,2.56-1.58,3.49-2.75c0.93-1.16,1.4-2.65,1.4-4.44
		c0-1.93-0.62-3.49-1.85-4.69c-1.23-1.2-2.84-2.21-4.84-3.04c-2-0.83-4.26-1.53-6.79-2.1c-2.53-0.56-5.09-1.21-7.69-1.95
		c-2.66-0.66-5.26-1.48-7.79-2.45c-2.53-0.96-4.79-2.21-6.79-3.74c-2-1.53-3.61-3.43-4.84-5.69c-1.23-2.26-1.85-5.06-1.85-8.38
		c0-3.66,0.78-6.84,2.35-9.53c1.56-2.7,3.61-4.94,6.14-6.74c2.53-1.8,5.39-3.13,8.58-3.99C22.66,0.43,25.86,0,29.05,0
		c3.73,0,7.3,0.42,10.73,1.25c3.43,0.83,6.47,2.18,9.13,4.04c2.66,1.86,4.77,4.24,6.34,7.14c1.56,2.9,2.35,6.41,2.35,10.53H42.43
		c-0.13-2.13-0.58-3.89-1.35-5.29c-0.77-1.4-1.78-2.5-3.04-3.29c-1.26-0.8-2.73-1.36-4.39-1.7c-1.66-0.33-3.43-0.5-5.29-0.5
		c-1.27,0-2.53,0.13-3.79,0.4c-1.26,0.27-2.41,0.73-3.44,1.4c-1.03,0.67-1.88,1.51-2.55,2.54c-0.67,1.03-1,2.28-1,3.74
		c0,1.4,0.27,2.53,0.8,3.39c0.53,0.87,1.58,1.65,3.14,2.35c1.56,0.7,3.73,1.43,6.49,2.2c2.76,0.77,6.37,1.71,10.83,2.84
		c0.86,0.2,2,0.48,3.39,0.85c1.4,0.37,2.88,0.87,4.44,1.5c1.56,0.63,3.13,1.45,4.69,2.45c1.56,1,2.99,2.23,4.29,3.69
		c1.3,1.46,2.35,3.21,3.14,5.24c0.8,2.03,1.2,4.38,1.2,7.04c0,3.26-0.63,6.29-1.9,9.08c-1.26,2.79-3.14,5.21-5.64,7.24
		c-2.5,2.03-5.59,3.63-9.28,4.79c-3.69,1.16-7.97,1.75-12.83,1.75c-3.93,0-7.74-0.5-11.43-1.5c-3.69-1-6.94-2.53-9.73-4.59
		c-2.79-2.06-5.04-4.69-6.74-7.89C0.75,57.5-0.06,53.7,0,49.31H15.18z"/>
	<path d="M69.28,1.7h15.67v27.35h28.85V1.7h15.67v71.27H113.8V42.22H84.95v30.74H69.28V1.7z"/>
	<path d="M142.54,22.86c1.6-4.59,3.89-8.58,6.89-11.98c2.99-3.39,6.65-6.06,10.98-7.99c4.33-1.93,9.25-2.9,14.77-2.9
		c5.52,0,10.45,0.97,14.77,2.9c4.32,1.93,7.99,4.59,10.98,7.99c2.99,3.39,5.29,7.39,6.89,11.98s2.4,9.52,2.4,14.77
		c0,5.12-0.8,9.95-2.4,14.47c-1.6,4.53-3.89,8.45-6.89,11.78c-2.99,3.33-6.66,5.96-10.98,7.88c-4.33,1.93-9.25,2.9-14.77,2.9
		c-5.52,0-10.45-0.97-14.77-2.9c-4.33-1.93-7.99-4.56-10.98-7.88c-2.99-3.33-5.29-7.25-6.89-11.78c-1.6-4.52-2.4-9.35-2.4-14.47
		C140.15,32.38,140.95,27.45,142.54,22.86z M156.87,46.37c0.7,2.83,1.81,5.38,3.34,7.64c1.53,2.26,3.53,4.08,5.99,5.44
		c2.46,1.36,5.46,2.05,8.98,2.05c3.53,0,6.52-0.68,8.98-2.05c2.46-1.36,4.46-3.18,5.99-5.44c1.53-2.26,2.65-4.81,3.34-7.64
		c0.7-2.83,1.05-5.74,1.05-8.73c0-3.13-0.35-6.15-1.05-9.08c-0.7-2.93-1.81-5.54-3.34-7.84c-1.53-2.3-3.53-4.12-5.99-5.49
		c-2.46-1.36-5.46-2.05-8.98-2.05c-3.53,0-6.52,0.68-8.98,2.05c-2.46,1.37-4.46,3.19-5.99,5.49c-1.53,2.3-2.65,4.91-3.34,7.84
		c-0.7,2.93-1.05,5.96-1.05,9.08C155.82,40.63,156.17,43.54,156.87,46.37z"/>
	<path d="M220.9,1.7h32.14c4.46,0,8.25,0.65,11.38,1.95c3.13,1.3,5.67,3.01,7.64,5.14c1.96,2.13,3.39,4.58,4.29,7.34
		c0.9,2.76,1.35,5.57,1.35,8.43c0,2.93-0.45,5.76-1.35,8.48c-0.9,2.73-2.33,5.16-4.29,7.29c-1.96,2.13-4.51,3.84-7.64,5.14
		c-3.13,1.3-6.92,1.95-11.38,1.95h-16.47v25.55H220.9V1.7z M236.57,35.24h12.18c1.8,0,3.53-0.13,5.19-0.4
		c1.66-0.26,3.13-0.78,4.39-1.55c1.26-0.76,2.28-1.85,3.04-3.24c0.76-1.4,1.15-3.23,1.15-5.49c0-2.26-0.38-4.09-1.15-5.49
		c-0.77-1.4-1.78-2.48-3.04-3.24c-1.27-0.76-2.73-1.28-4.39-1.55c-1.66-0.26-3.39-0.4-5.19-0.4h-12.18V35.24z"/>
</g>
</svg>
