<?xml version="1.0" encoding="utf-8"?>
<!-- Generator: Adobe Illustrator 28.1.0, SVG Export Plug-In . SVG Version: 6.00 Build 0)  -->
<svg version="1.1" id="Layer_1" xmlns="http://www.w3.org/2000/svg" xmlns:xlink="http://www.w3.org/1999/xlink" x="0px" y="0px"
	 viewBox="0 0 266.32 74.66" style="enable-background:new 0 0 266.32 74.66;" xml:space="preserve">
<g>
	<path d="M50.61,25.65c-0.27-1.8-0.87-3.44-1.8-4.94c-0.93-1.5-2.1-2.81-3.49-3.94c-1.4-1.13-2.98-2.01-4.74-2.65
		c-1.76-0.63-3.61-0.95-5.54-0.95c-3.53,0-6.52,0.68-8.98,2.05c-2.46,1.37-4.46,3.19-5.99,5.49c-1.53,2.3-2.65,4.91-3.34,7.84
		c-0.7,2.93-1.05,5.96-1.05,9.08c0,3,0.35,5.91,1.05,8.73c0.7,2.83,1.81,5.38,3.34,7.64c1.53,2.26,3.53,4.08,5.99,5.44
		c2.46,1.36,5.46,2.05,8.98,2.05c4.79,0,8.53-1.48,11.23-4.44c2.7-2.96,4.34-6.8,4.94-11.53h15.17c-0.4,4.46-1.43,8.48-3.09,12.08
		c-1.66,3.59-3.86,6.66-6.59,9.18c-2.73,2.53-5.92,4.48-9.58,5.84c-3.66,1.36-7.69,2.05-12.08,2.05c-5.52,0-10.45-0.97-14.77-2.9
		c-4.33-1.93-7.99-4.56-10.98-7.88C6.29,60.56,3.99,56.63,2.4,52.1C0.8,47.58,0,42.76,0,37.63c0-5.26,0.8-10.18,2.4-14.77
		c1.6-4.59,3.89-8.58,6.89-11.98c2.99-3.39,6.65-6.05,10.98-7.98C24.59,0.97,29.51,0,35.04,0c3.93,0,7.64,0.57,11.13,1.7
		c3.49,1.13,6.62,2.78,9.38,4.94c2.76,2.16,5.04,4.84,6.84,8.03c1.8,3.19,2.93,6.85,3.39,10.98H50.61z"/>
	<path d="M94.53,1.7h16.07l26.65,71.27h-16.27l-5.39-15.87H88.94l-5.59,15.87H67.48L94.53,1.7z M93.03,45.42h18.47l-8.98-26.15h-0.2
		L93.03,45.42z"/>
	<path d="M143.44,1.7h38.43c3.19,0,6.07,0.52,8.63,1.55c2.56,1.03,4.76,2.45,6.59,4.24c1.83,1.8,3.23,3.89,4.19,6.29
		c0.96,2.4,1.45,4.93,1.45,7.59c0,4.19-0.88,7.82-2.65,10.88c-1.76,3.06-4.64,5.39-8.63,6.99v0.2c1.93,0.53,3.53,1.35,4.79,2.45
		c1.26,1.1,2.3,2.41,3.09,3.94c0.8,1.53,1.38,3.18,1.75,4.94c0.37,1.76,0.61,3.54,0.75,5.34c0.07,1.13,0.13,2.46,0.2,3.99
		c0.07,1.53,0.18,3.08,0.35,4.64c0.17,1.56,0.43,3.08,0.8,4.54c0.37,1.46,0.91,2.7,1.65,3.69h-15.67c-0.47-1.13-0.82-2.38-1.05-3.74
		c-0.23-1.36-0.43-2.79-0.6-4.29c-0.17-1.5-0.3-3.03-0.4-4.59c-0.1-1.56-0.25-3.04-0.45-4.44c-0.53-3.73-1.66-6.45-3.39-8.18
		c-1.73-1.73-4.56-2.6-8.48-2.6h-15.67v27.85h-15.67V1.7z M159.11,33.94h17.17c3.53,0,6.2-0.8,8.04-2.4
		c1.83-1.6,2.74-4.19,2.74-7.79c0-3.46-0.92-5.97-2.74-7.54c-1.83-1.56-4.51-2.34-8.04-2.34h-17.17V33.94z"/>
	<path d="M229.28,14.87h-21.36V1.7h58.39v13.18h-21.36v58.09h-15.67V14.87z"/>
</g>
<text transform="matrix(1 0 0 1 56.9729 -166.0116)" style="display:none; font-family:'HelveticaNeueCE-Bold'; font-size:99.8181px;">CART</text>
</svg>
